<svg width="155" height="154" viewBox="0 0 155 154" fill="none" xmlns="http://www.w3.org/2000/svg">
<path d="M138.716 45.9091C138.53 45.4185 138.296 44.9476 138.017 44.5035C134.313 38.4552 130.225 31.424 120.881 17.6224C120.853 17.5851 120.817 17.5548 120.775 17.5339C120.733 17.5131 120.687 17.5022 120.641 17.5022C120.594 17.5022 120.548 17.5131 120.507 17.5339C120.465 17.5548 120.429 17.5851 120.401 17.6224C115.131 25.5037 103.405 44.8542 103.296 45.0759C102.906 45.8817 102.707 46.7665 102.714 47.6617C102.721 48.5569 102.935 49.4383 103.338 50.2376C103.741 51.0368 104.323 51.7324 105.039 52.2703C105.754 52.8083 106.584 53.1741 107.464 53.3393C108.952 53.6071 109.982 53.2311 111.635 52.8061C113.687 49.4516 113.045 46.0288 113.147 44.327C113.141 43.8271 113.24 43.3316 113.439 42.8726C113.637 42.4136 113.929 42.0015 114.297 41.6631C114.604 41.3744 114.985 41.1761 115.397 41.0899C115.809 41.0038 116.237 41.0333 116.634 41.1751C118.054 41.8127 117.805 43.8299 117.93 45.125C118.119 47.0808 118.807 49.3204 120.674 49.9864C121.421 50.2526 126.149 51.4488 127.3 51.712C127.371 51.7322 127.432 51.7799 127.469 51.8447C127.506 51.9094 127.515 51.9861 127.496 52.058C127.483 52.1048 127.434 52.2613 127.424 52.2936C128.842 52.658 130.263 53.0109 131.68 53.3869C132.698 53.6653 133.772 53.6614 134.788 53.3754C135.804 53.0894 136.723 52.5322 137.446 51.7635C138.169 50.9949 138.67 50.0439 138.893 49.0125C139.117 47.9811 139.055 46.9083 138.716 45.9091ZM120.12 40.2314V33.224C120.12 33.1513 120.149 33.0816 120.2 33.0303C120.252 32.9789 120.321 32.95 120.394 32.95C120.467 32.95 120.536 32.9789 120.588 33.0303C120.639 33.0816 120.668 33.1513 120.668 33.224C120.668 33.224 120.727 38.1851 120.696 40.2306C120.695 40.2676 120.687 40.304 120.671 40.3378C120.656 40.3715 120.635 40.402 120.608 40.4272C120.581 40.4525 120.549 40.4722 120.514 40.4851C120.479 40.4979 120.443 40.5038 120.406 40.5022C120.333 40.5002 120.264 40.4713 120.211 40.4212C120.158 40.371 120.126 40.3031 120.12 40.2306V40.2314Z" fill="#FF4848"/>
<path d="M127.299 51.7112C126.181 51.4557 121.399 50.2442 120.674 49.9856C120.066 49.7159 119.531 49.3044 119.115 48.7857C118.698 48.2669 118.412 47.656 118.281 47.004C117.987 45.8589 117.84 44.6813 117.842 43.4992C117.783 42.6022 117.535 41.581 116.633 41.1744C116.237 41.0325 115.809 41.0031 115.396 41.0892C114.984 41.1753 114.604 41.3736 114.297 41.6623C112.638 43.0227 113.266 45.4987 113.151 47.6002C112.97 50.8895 111.616 53.9685 108.737 55.7056C105.234 57.8186 102.425 57.4312 99.0076 55.3335C95.9961 53.4851 94.2805 51.8493 90.5386 48.9306C91.1168 49.5917 91.6697 50.2745 92.1959 50.9777C97.0565 57.2689 99.967 64.8467 100.567 72.7741C100.774 74.7705 100.565 76.788 99.9537 78.6997C105.554 78.7557 110.978 76.7402 115.183 73.0404C117.994 70.682 120.422 67.9016 122.38 64.7984C124.298 61.5867 126.592 55.2774 127.498 52.0572C127.517 51.985 127.507 51.908 127.47 51.8431C127.433 51.7782 127.371 51.7308 127.299 51.7112ZM104.926 75.1258C106.212 74.682 107.443 74.0957 108.598 73.378C108.905 73.1869 109.188 73.6734 108.882 73.8629C107.684 74.6046 106.408 75.2099 105.076 75.6675C104.733 75.7857 104.587 75.2432 104.926 75.1258Z" fill="#FFD2D2"/>
<path d="M137.254 58.0626L142.102 63.5669C142.341 63.8385 142.737 63.4403 142.499 63.1695L137.651 57.6659C137.412 57.3943 137.016 57.7948 137.254 58.0626Z" fill="black"/>
<path d="M150.129 31.6772C147.785 32.2864 145.456 32.9546 143.134 33.6444C143.067 33.6679 143.011 33.7162 142.978 33.7795C142.944 33.8428 142.936 33.9164 142.955 33.9853C142.975 34.0543 143.019 34.1134 143.08 34.1506C143.141 34.1879 143.214 34.2006 143.284 34.1861L150.278 32.2188C150.349 32.1991 150.41 32.1516 150.447 32.0869C150.484 32.0221 150.494 31.9454 150.474 31.8736C150.454 31.8017 150.407 31.7407 150.342 31.7039C150.277 31.667 150.201 31.6574 150.129 31.6772Z" fill="black"/>
<path d="M131.945 17.2403L137.652 10.7415C137.889 10.4714 137.494 10.0725 137.254 10.3448L131.547 16.8436C131.31 17.1137 131.705 17.5134 131.945 17.2403Z" fill="black"/>
<path d="M113.715 108.634C112.827 105.172 110.908 102.061 108.212 99.7138C105.516 97.3668 102.171 95.8943 98.6193 95.4914C99.2414 93.4907 99.283 91.3545 98.7393 89.3311C98.1956 87.3078 97.089 85.4802 95.548 84.0607C94.0069 82.6412 92.0947 81.6881 90.0336 81.3122C87.9724 80.9362 85.8469 81.1529 83.9039 81.9369C84.0229 79.3443 82.4124 76.586 79.8605 75.8233C78.3861 75.4874 76.8507 75.5315 75.398 75.9514C74.2459 76.1657 73.1641 76.6597 72.2477 77.3901C70.4934 78.8983 69.1637 80.8389 68.3906 83.0195C69.5615 84.3706 69.1049 85.7678 69.7717 88.0113C69.9947 88.7363 70.4518 89.3669 71.0714 89.8044C72.3516 90.6221 73.8836 90.9508 75.3865 90.7305C77.3108 90.5402 79.163 89.8504 81.0996 89.7614C82.3057 89.7062 83.9277 90.0683 84.4303 91.3174C85.2129 93.2586 82.374 93.8701 81.0927 94.2261C80.266 94.3813 79.4713 94.6744 78.7418 95.0931C78.1924 95.4177 78.128 96.1827 79.3978 96.3975C80.0822 96.5157 81.0405 96.5042 82.0648 96.5809C82.628 96.6231 82.4078 96.6453 82.6947 96.5295C91.2812 93.066 100.548 98.0909 102.72 107.093C104.067 112.677 102.897 118.173 100.112 123.068C103.752 123.144 108.304 122.511 111.05 120.07C114.058 117.397 114.673 112.583 113.715 108.634ZM80.0761 86.4637C79.2321 90.3883 74.1796 89.3993 73.7446 86.7453C73.5957 85.7979 73.7923 84.8284 74.2986 84.0138C74.6909 83.4354 75.2574 82.9971 75.9158 82.7625C76.5742 82.528 77.2903 82.5094 77.9599 82.7095C79.7408 83.0678 80.4313 84.7972 80.0761 86.4637Z" fill="black"/>
<path d="M102.716 107.097C100.536 98.0572 91.1819 92.9794 82.4911 96.6224C82.848 96.6554 83.2013 96.7198 83.5468 96.815C84.1186 96.9365 84.6187 97.2802 84.9371 97.7704C85.2556 98.2606 85.3662 98.8572 85.2448 99.429C85.1742 99.7739 85.0209 100.096 84.7981 100.369C84.5753 100.641 84.2897 100.856 83.9658 100.993C82.6614 101.531 80.2376 101.208 78.799 101.745C78.5351 101.844 78.3954 102.02 78.4261 102.129C78.6346 102.299 78.8911 102.399 79.1596 102.416C80.7409 102.718 82.5264 102.591 84.0248 103.344C84.4184 103.531 84.744 103.836 84.9564 104.216C85.1688 104.597 85.2575 105.034 85.2101 105.467C85.1627 105.9 84.9815 106.308 84.6918 106.633C84.4022 106.958 84.0183 107.186 83.5936 107.283C81.8696 107.715 80.0842 107.09 78.1606 107.184C75.5688 107.31 74.0312 109.129 72.4062 110.429C66.389 115.046 59.4095 118.249 51.9854 119.801C51.9854 164.388 52.089 128.895 51.9854 143.411C51.9846 143.485 51.9548 143.556 51.9023 143.609C51.8498 143.661 51.7788 143.691 51.7046 143.692C71.5476 143.719 97.4819 136.221 102.582 117.077C103.457 113.813 103.503 110.383 102.716 107.097Z" fill="#2755A0"/>
<path d="M33.1872 97.8122C32.2665 96.1027 30.2938 92.5318 30.247 92.4413C30.745 91.5436 31.2215 90.6336 31.7348 89.7436C32.5576 88.3557 33.2831 86.9123 33.9061 85.4239C34.3915 84.2623 34.53 82.9851 34.3051 81.7464C34.1912 81.2105 33.9691 80.7035 33.6525 80.2564C33.3358 79.8093 32.9313 79.4315 32.4637 79.1462C30.9679 78.3296 29.2749 77.9442 27.5731 78.0328H4.99176C4.91753 78.0336 4.84656 78.0635 4.79407 78.116C4.74158 78.1685 4.71174 78.2394 4.71094 78.3137V106.568C4.71174 106.642 4.74158 106.713 4.79407 106.766C4.84656 106.818 4.91753 106.848 4.99176 106.849H13.2191C11.8053 105.436 10.9437 103.564 10.79 101.571C10.7759 101.275 10.8408 100.981 10.9779 100.718C11.115 100.456 11.3195 100.235 11.5703 100.077C11.8887 99.9184 12.2455 99.8529 12.5996 99.8882C12.9536 99.9235 13.2905 100.058 13.5713 100.277C14.7015 101.16 14.6647 101.798 16.0266 103.551C17.0443 104.862 18.2904 105.98 19.7048 106.85H21.8309C22.6534 106.11 23.163 105.084 23.2557 103.982C23.4098 103.439 23.6872 102.939 24.0664 102.521C24.4456 102.103 24.9163 101.778 25.4417 101.573C26.7376 101.189 27.7342 102.47 27.623 103.75C27.6268 104.794 27.5007 105.835 27.2478 106.847C27.3713 106.847 27.3621 106.872 27.4504 106.786C28.8022 105.389 30.5053 104.382 32.3808 103.87C32.6375 103.777 32.9149 103.754 33.1835 103.805C33.452 103.856 33.7018 103.979 33.9061 104.16C35.0041 102.227 34.2376 99.7641 33.1872 97.8122ZM21.8133 98.205H14.647C14.5725 98.205 14.5011 98.1754 14.4484 98.1227C14.3958 98.0701 14.3662 97.9987 14.3662 97.9242C14.3662 97.8497 14.3958 97.7783 14.4484 97.7256C14.5011 97.6729 14.5725 97.6434 14.647 97.6434H21.8125C21.887 97.6434 21.9584 97.6729 22.0111 97.7256C22.0637 97.7783 22.0933 97.8497 22.0933 97.9242C22.0933 97.9987 22.0637 98.0701 22.0111 98.1227C21.9584 98.1754 21.887 98.205 21.8125 98.205H21.8133ZM21.8133 86.9063H14.647C14.5725 86.9063 14.5011 86.8767 14.4484 86.824C14.3958 86.7713 14.3662 86.6999 14.3662 86.6254C14.3662 86.551 14.3958 86.4795 14.4484 86.4269C14.5011 86.3742 14.5725 86.3446 14.647 86.3446H21.8125C21.887 86.3446 21.9584 86.3742 22.0111 86.4269C22.0637 86.4795 22.0933 86.551 22.0933 86.6254C22.0933 86.6999 22.0637 86.7713 22.0111 86.824C21.9584 86.8767 21.887 86.9063 21.8125 86.9063H21.8133Z" fill="#CCEAFF"/>
<path d="M12.3577 73.5728C12.5288 73.8912 13.0137 73.6081 12.8426 73.2889L9.50041 67.0625C9.32931 66.7441 8.8444 67.0272 9.0155 67.3464L12.3577 73.5728Z" fill="black"/>
<path d="M15.8335 73.4309V65.8925C15.8363 65.8556 15.8314 65.8184 15.8192 65.7834C15.807 65.7484 15.7876 65.7163 15.7624 65.6891C15.7372 65.6619 15.7067 65.6402 15.6727 65.6254C15.6387 65.6106 15.602 65.6029 15.5649 65.6029C15.5279 65.6029 15.4912 65.6106 15.4572 65.6254C15.4232 65.6402 15.3927 65.6619 15.3675 65.6891C15.3422 65.7163 15.3229 65.7484 15.3107 65.7834C15.2985 65.8184 15.2936 65.8556 15.2964 65.8925C15.2511 68.0961 15.2473 73.1217 15.2511 73.4309C15.2522 73.4679 15.2606 73.5042 15.2759 73.5379C15.2911 73.5716 15.3129 73.6019 15.3399 73.6271C15.367 73.6523 15.3988 73.6718 15.4334 73.6847C15.4681 73.6975 15.505 73.7033 15.5419 73.7018C15.6151 73.6997 15.6851 73.6711 15.7387 73.6213C15.7924 73.5714 15.8261 73.5038 15.8335 73.4309Z" fill="black"/>
<path d="M18.6663 73.5237L22.0592 67.4009C22.2341 67.0848 21.7523 66.8009 21.5742 67.1178L18.1814 73.2398C18.0042 73.5536 18.4891 73.8367 18.6663 73.5237Z" fill="black"/>
<path d="M79.8331 84.112C79.0949 82.5775 76.9788 82.312 75.6008 82.8782C74.2059 83.4514 73.4978 85.2399 73.7448 86.746C74.0878 88.8345 77.3694 89.9347 79.0995 88.2859C79.6255 87.7435 79.9765 87.0557 80.1073 86.3116C80.238 85.5675 80.1425 84.8012 79.8331 84.112Z" fill="#FC9070"/>
<path d="M84.0245 103.348C82.2751 102.468 80.1943 102.78 78.6321 102.274C78.5508 102.229 78.4733 102.207 78.4257 102.13C78.1771 101.221 82.5866 101.562 83.9654 100.99C84.3933 100.804 84.7509 100.486 84.9868 100.083C85.2227 99.6802 85.3247 99.2129 85.2781 98.7484C85.2316 98.2839 85.0388 97.8461 84.7276 97.4981C84.4165 97.1501 84.0029 96.9098 83.5465 96.8117C82.2719 96.5971 80.9843 96.4689 79.6925 96.4281C78.0513 96.2278 78.1687 95.4237 78.7388 95.0885C79.4681 94.6694 80.2629 94.3762 81.0897 94.2214C82.371 93.8654 85.2099 93.2539 84.4273 91.3127C83.9247 90.0659 82.3027 89.7015 81.0966 89.7567C79.16 89.8457 77.3078 90.5363 75.3835 90.7258C73.8806 90.9461 72.3486 90.6173 71.0684 89.7997C70.449 89.362 69.9919 88.7315 69.7687 88.0066C69.5357 87.1793 69.3836 86.3313 69.3145 85.4746C69.2573 84.6934 69.0131 83.9373 68.6024 83.2703C68.2172 82.7475 67.7041 82.3324 67.1124 82.0649C66.8468 81.9387 66.5589 81.8664 66.2652 81.8522C65.9715 81.838 65.6779 81.8821 65.4014 81.982C65.0892 82.1373 64.828 82.3788 64.6489 82.678C64.4698 82.9772 64.3803 83.3215 64.3909 83.67C64.4411 84.3571 64.5741 85.0357 64.7868 85.691C65.3945 88.2498 63.9137 90.7971 62.004 92.3854C57.1855 96.392 51.3881 94.701 44.2264 101.53C42.2507 103.414 40.2873 105.709 39.6474 108.427C38.6952 112.474 40.0027 117.473 43.9617 119.552C44.8933 120.031 45.9045 120.336 46.9456 120.453C44.2964 120.577 41.6523 120.118 39.1997 119.109C36.7471 118.1 34.5458 116.565 32.7512 114.612C31.2405 112.897 30.2914 110.733 31.2758 108.69C31.9057 107.616 32.4505 107.436 33.5093 106.465C33.7822 106.251 34.0114 105.987 34.1845 105.687C34.2966 105.433 34.3295 105.151 34.279 104.878C34.2285 104.605 34.0968 104.353 33.9013 104.156C33.7057 103.959 33.4552 103.826 33.1826 103.773C32.91 103.72 32.6278 103.751 32.373 103.861C31.6521 104.058 30.9535 104.329 30.2883 104.669C29.215 105.24 28.2356 105.972 27.3842 106.839C27.1134 107.12 27.1602 107.158 27.24 106.839C27.4925 105.826 27.6185 104.786 27.6152 103.742C27.7257 102.468 26.7351 101.183 25.4338 101.564C24.9085 101.77 24.4378 102.095 24.0586 102.513C23.6794 102.931 23.402 103.431 23.2479 103.973C23.1676 104.806 22.8659 105.603 22.374 106.28C22.1393 106.612 21.824 106.879 21.4579 107.055C21.1674 107.156 20.8578 107.189 20.5527 107.152C20.2475 107.115 19.9549 107.009 19.697 106.841C18.2792 105.976 17.0325 104.858 16.0187 103.542C14.7067 101.85 14.673 101.133 13.5635 100.268C13.2827 100.05 12.9458 99.9151 12.5918 99.8798C12.2377 99.8445 11.8809 99.91 11.5625 100.069C11.3116 100.226 11.1072 100.448 10.9701 100.71C10.833 100.973 10.7681 101.267 10.7822 101.563C10.9249 104.714 13.0839 106.867 15.4709 109.127C13.6494 123.819 24.0282 138.109 38.8778 142.143C43.0619 143.237 47.3756 143.755 51.6996 143.683C51.7739 143.683 51.845 143.653 51.8975 143.6C51.95 143.548 51.9798 143.477 51.9804 143.402C52.1339 124.221 52.0103 120.474 51.9804 119.792C59.4024 118.235 66.3814 115.036 72.405 110.429C73.5759 109.493 74.6339 108.364 76.0112 107.726C77.258 107.182 78.6378 107.019 79.9771 107.257C81.7219 107.441 83.8633 107.794 84.8347 106.458C85.0167 106.21 85.1411 105.924 85.1989 105.622C85.2568 105.319 85.2465 105.008 85.1689 104.71C85.0913 104.412 84.9483 104.136 84.7504 103.9C84.5524 103.664 84.3044 103.476 84.0245 103.348ZM44.063 115.616C44.0005 115.65 43.9272 115.659 43.8583 115.641C43.7894 115.623 43.73 115.579 43.6924 115.518C43.1563 114.595 42.7694 113.592 42.5461 112.548C42.4694 112.195 43.0065 112.046 43.0878 112.398C43.3158 113.391 43.6825 114.346 44.1773 115.237C44.2122 115.302 44.2198 115.379 44.1983 115.45C44.1769 115.521 44.1283 115.581 44.063 115.616ZM20.6791 111.827L19.1492 110.316C18.8914 110.061 19.2888 109.664 19.5458 109.918L21.0765 111.43C21.3328 111.684 20.9354 112.082 20.6776 111.827H20.6791ZM26.3208 111.72C26.1942 111.158 26.1543 110.58 26.2026 110.006C26.2341 109.648 26.7965 109.647 26.7643 110.006C26.7168 110.53 26.7496 111.057 26.8617 111.571C26.9384 111.924 26.3975 112.073 26.3193 111.72H26.3208ZM48.4947 141.246C48.474 141.315 48.428 141.372 48.366 141.407C48.3041 141.443 48.231 141.453 48.1617 141.436C46.6779 141.052 45.2032 140.636 43.7339 140.199C43.6983 140.189 43.6651 140.172 43.6361 140.149C43.6071 140.126 43.5828 140.098 43.5648 140.065C43.5468 140.033 43.5353 139.998 43.531 139.961C43.5267 139.924 43.5297 139.887 43.5397 139.851C43.5498 139.816 43.5668 139.783 43.5897 139.754C43.6126 139.725 43.6411 139.7 43.6733 139.682C43.7056 139.664 43.7411 139.653 43.7778 139.649C43.8145 139.644 43.8517 139.647 43.8873 139.657C45.3704 140.041 46.8459 140.458 48.3152 140.894C48.385 140.918 48.4427 140.968 48.4756 141.034C48.5085 141.1 48.514 141.176 48.4909 141.246H48.4947ZM71.0799 96.4304C71.9393 96.1603 72.8088 95.9301 73.6886 95.7399C74.0424 95.6631 74.1912 96.2048 73.8383 96.2816C72.9585 96.4718 72.0889 96.702 71.2296 96.9721C70.8789 97.0787 70.7324 96.5417 71.0761 96.4304H71.0799ZM74.4122 102.31C73.5352 102.485 72.6921 102.8 71.9155 103.243C71.8514 103.275 71.7774 103.282 71.7086 103.262C71.6398 103.241 71.5813 103.195 71.5451 103.133C71.509 103.071 71.4979 102.998 71.5141 102.928C71.5303 102.858 71.5726 102.797 71.6324 102.757C72.4443 102.275 73.335 101.941 74.2633 101.768C74.6132 101.699 74.7628 102.242 74.4083 102.31H74.4122Z" fill="#FC9070"/>
<path d="M71.9139 41.717C71.0025 41.2907 70.066 40.9204 69.1095 40.6083C68.1106 40.1386 67.2314 39.4481 66.5384 38.5888C65.921 37.8368 65.5228 36.9291 65.3875 35.9656C65.2203 34.728 65.6599 33.5372 65.8717 32.3326C66.1418 31.2559 66.0069 30.1176 65.4927 29.1338C65.2546 28.7437 64.91 28.4297 64.4995 28.2288C64.089 28.0279 63.6297 27.9484 63.1755 27.9998C62.7402 28.1036 62.3488 28.3421 62.0569 28.6812C61.765 29.0204 61.5875 29.443 61.5497 29.8888C61.48 30.526 61.3219 31.1504 61.0801 31.7441C60.0405 33.6538 56.1965 36.4397 54.4394 37.7057C51.0159 40.1717 49.5251 41.0495 46.153 43.7671C42.3466 46.8316 38.5716 50.0157 35.6054 53.9311C32.8202 57.6078 30.6381 62.1109 30.5292 66.8027C30.3258 75.4828 39.5706 81.6723 48.3405 82.6521C56.4535 83.5567 64.3947 79.2347 68.8893 72.6569C69.4338 71.8421 69.931 70.9967 70.3786 70.125C70.4136 70.0601 70.4226 69.9844 70.4038 69.9131C70.385 69.8419 70.3398 69.7804 70.2773 69.7413C54.1517 59.8183 53.0223 59.1063 52.9625 59.0664C52.8681 59.2428 51.2745 62.239 50.5893 63.5794C50.4243 63.9017 49.9402 63.6178 50.1044 63.2963C52.222 59.1462 54.4011 55.3214 56.4259 51.2019C56.5747 50.9004 57.0021 51.1252 56.9338 51.4198C57.5899 51.6886 58.2065 52.0451 58.7668 52.4794C59.3826 52.9592 60.1162 53.2643 60.8906 53.3625C62.7727 53.5927 64.0019 51.3032 62.3883 48.9753C63.5829 49.6996 64.285 50.9019 66.0765 50.7063C66.4392 50.6285 66.7669 50.4352 67.0105 50.1555C67.2541 49.8759 67.4004 49.5247 67.4277 49.1548C67.5681 47.2681 66.1778 46.4694 65.4136 45.1328C66.8989 45.5667 68.4528 45.7156 69.9934 45.5717C71.1443 45.4635 72.7901 45.0983 72.9996 43.7234C73.0275 43.3204 72.9402 42.9178 72.748 42.5626C72.5558 42.2073 72.2665 41.9141 71.9139 41.717ZM39.0972 76.303C37.9523 75.576 36.9594 74.6334 36.1739 73.5278C35.9637 73.2324 36.4502 72.9523 36.6581 73.2447C37.3918 74.2699 38.3166 75.1437 39.3819 75.8181C39.6888 76.0114 39.4034 76.4971 39.0972 76.303ZM59.2901 46.5991C58.518 46.3467 57.7743 46.0144 57.0712 45.6078C57.0396 45.5884 57.0123 45.5629 56.9908 45.5328C56.9693 45.5027 56.954 45.4686 56.9459 45.4325C56.9377 45.3964 56.9369 45.359 56.9434 45.3226C56.9499 45.2861 56.9636 45.2514 56.9837 45.2203C57.0216 45.1602 57.081 45.1167 57.1498 45.0986C57.2186 45.0805 57.2917 45.0892 57.3543 45.1229C58.0208 45.4943 58.7186 45.8065 59.4397 46.0559C59.7804 46.174 59.6331 46.7165 59.2901 46.5991ZM62.9568 42.7382L60.8438 41.5804C60.5261 41.4062 60.81 40.9213 61.1277 41.0955L63.2438 42.2533C63.5576 42.4275 63.2737 42.9101 62.9568 42.7382Z" fill="#FFD2D2"/>
<path d="M74.1323 30.988C72.4804 30.0972 69.4666 30.9466 68.3663 33.52C68.0666 34.3422 68.0354 35.2382 68.2773 36.0793C68.5191 36.9203 69.0215 37.6629 69.7121 38.2003C70.4496 38.708 71.3351 38.9558 72.2289 38.9045C73.1228 38.8533 73.9741 38.5059 74.6487 37.9172C75.1483 37.469 75.5383 36.9121 75.7889 36.2895C76.0394 35.6668 76.1438 34.995 76.0939 34.3257C76.044 33.6564 75.8412 33.0074 75.5012 32.4288C75.1611 31.8501 74.6928 31.3573 74.1323 30.988Z" fill="#FFD2D2"/>
<path d="M75.2809 23.38C75.4873 23.012 75.5544 22.5821 75.4699 22.1687C75.3854 21.7553 75.1549 21.3862 74.8205 21.1288C74.1921 20.6854 73.4187 21.0467 72.8341 21.3982C71.8838 21.9693 71.083 22.7583 70.4977 23.6999C70.5258 23.4736 70.5011 23.2438 70.4258 23.0284C70.3505 22.8131 70.2265 22.6181 70.0635 22.4585C69.4059 21.9214 68.5773 22.4846 68.1653 23.0485C67.8315 23.5732 67.6305 24.1712 67.5798 24.791C67.3711 27.1242 67.6635 27.2976 67.5722 29.0877C67.5561 29.4053 67.7302 29.5242 68.0011 29.4138C68.0778 29.3815 75.9706 25.9097 76.6382 25.5813C78.4466 24.6905 77.8765 22.2184 75.2809 23.38Z" fill="black"/>
<path d="M100.568 72.774C100.016 65.395 97.4498 58.309 93.1483 52.2881C91.3493 49.6133 89.155 47.2268 86.6403 45.21C82.804 42.2868 75.8411 40.0379 69.1106 40.6065C70.0677 40.9175 71.0043 41.2883 71.915 41.7167C72.2679 41.9135 72.5575 42.2067 72.75 42.562C72.9425 42.9173 73.03 43.32 73.0022 43.7231C72.7927 45.098 71.1454 45.4632 69.9961 45.5714C68.4554 45.7153 66.9015 45.5664 65.4162 45.1325C66.192 46.4914 67.5715 47.2625 67.4303 49.1545C67.4035 49.5239 67.2578 49.8746 67.0151 50.1542C66.7723 50.4338 66.4456 50.6274 66.0838 50.706C64.2991 50.9008 63.5794 49.6932 62.3955 48.975C64.0751 51.3988 62.6848 53.5824 60.8978 53.3622C59.0717 53.1374 58.7832 52.1684 56.941 51.4195C57.0101 51.128 56.5812 50.9001 56.4331 51.2016C54.4751 55.1806 52.2224 59.1627 50.1116 63.296C49.9474 63.6167 50.4316 63.9014 50.5965 63.5791C50.8681 63.0466 51.8487 61.1791 52.9612 59.0615C53.1239 59.1666 54.7942 60.2124 70.2822 69.7426C70.3447 69.7817 70.3899 69.8431 70.4087 69.9143C70.4276 69.9856 70.4185 70.0613 70.3835 70.1262C69.9359 70.998 69.4387 71.8434 68.8943 72.6582C66.3292 76.4088 62.7409 79.3438 58.5561 81.1142C60.4456 82.8844 62.5385 84.4241 64.7909 85.7009C64.5781 85.0456 64.4452 84.3671 64.395 83.6799C64.3844 83.3314 64.4739 82.9871 64.653 82.6879C64.8321 82.3887 65.0933 82.1472 65.4055 81.9919C65.9503 81.846 66.5262 81.8662 67.0594 82.0499C67.5926 82.2336 68.0587 82.5726 68.3978 83.0231C69.4252 80.4497 71.1339 77.6868 73.6367 76.529C74.2041 76.2752 74.797 76.0829 75.4053 75.9551C76.8579 75.5351 78.3934 75.491 79.8677 75.827C82.4196 76.5896 84.0301 79.3479 83.9112 81.9405C85.8761 81.1732 88.0168 80.9724 90.0901 81.3611C92.1634 81.7499 94.0861 82.7125 95.6396 84.1395C97.6633 82.7333 99.2065 80.7396 100.061 78.428C100.584 76.5921 100.757 74.6738 100.568 72.774Z" fill="#FF4848"/>
<path d="M39.383 75.8178C38.3183 75.1434 37.394 74.2696 36.6608 73.2444C36.4528 72.9521 35.9664 73.2322 36.1766 73.5276C36.9621 74.6332 37.9549 75.5758 39.0999 76.3028C39.4045 76.4969 39.6899 76.0104 39.383 75.8178Z" fill="#FF4848"/>
<path d="M57.0721 45.6076C57.7752 46.0145 58.5189 46.3468 59.2911 46.5989C59.634 46.7163 59.7813 46.1738 59.4407 46.0572C58.7197 45.8069 58.0219 45.4942 57.3552 45.1227C57.291 45.087 57.2154 45.0779 57.1446 45.0973C57.0737 45.1167 57.0133 45.1631 56.9763 45.2265C56.9393 45.2899 56.9286 45.3654 56.9465 45.4366C56.9644 45.5078 57.0095 45.5692 57.0721 45.6076Z" fill="#FF4848"/>
<path d="M60.845 41.5802L62.958 42.738C63.2749 42.9122 63.5588 42.4272 63.2411 42.2531L61.1288 41.0953C60.8112 40.9211 60.5273 41.406 60.845 41.5802Z" fill="#FF4848"/>
<path d="M108.599 73.3779C107.444 74.0956 106.212 74.6819 104.927 75.1257C104.588 75.2431 104.734 75.7856 105.077 75.6674C106.409 75.2098 107.685 74.6045 108.882 73.8628C109.189 73.6771 108.908 73.1868 108.599 73.3779Z" fill="#FF4848"/>
<path d="M71.2241 96.9719C72.0834 96.7019 72.953 96.4717 73.8328 96.2814C74.1858 96.2047 74.0369 95.6638 73.6832 95.7397C72.8029 95.93 71.9333 96.1602 71.0745 96.4303C70.7323 96.5415 70.8788 97.0786 71.2241 96.9719Z" fill="#FF4848"/>
<path d="M71.9145 103.243C72.6912 102.8 73.5342 102.485 74.4112 102.31C74.7657 102.242 74.6161 101.7 74.2624 101.768C73.334 101.941 72.4434 102.275 71.6314 102.757C71.5717 102.797 71.5294 102.858 71.5131 102.928C71.4969 102.998 71.508 103.072 71.5442 103.134C71.5803 103.196 71.6388 103.241 71.7076 103.262C71.7765 103.282 71.8505 103.275 71.9145 103.243Z" fill="#FF4848"/>
<path d="M43.0863 112.398C43.0095 112.046 42.4648 112.195 42.5446 112.548C42.7678 113.592 43.1547 114.595 43.6909 115.518C43.7292 115.581 43.7906 115.626 43.8619 115.644C43.9331 115.662 44.0085 115.651 44.0719 115.614C44.1354 115.577 44.1818 115.517 44.2012 115.446C44.2206 115.375 44.2115 115.299 44.1758 115.235C43.6811 114.345 43.3143 113.39 43.0863 112.398Z" fill="#FF4848"/>
<path d="M43.7297 140.199C45.199 140.635 46.6737 141.052 48.1576 141.436C48.2294 141.456 48.3064 141.447 48.3716 141.411C48.4367 141.375 48.4848 141.314 48.5051 141.242C48.5255 141.17 48.5165 141.093 48.4801 141.028C48.4437 140.963 48.3829 140.915 48.311 140.894C46.8424 140.456 45.3662 140.044 43.8831 139.658C43.8113 139.637 43.7343 139.646 43.6691 139.683C43.604 139.719 43.5559 139.78 43.5356 139.852C43.5152 139.923 43.5242 140 43.5606 140.066C43.597 140.131 43.6578 140.179 43.7297 140.199Z" fill="#FF4848"/>
<path d="M19.5442 109.918C19.2872 109.664 18.8897 110.061 19.1475 110.316L20.6775 111.827C20.9353 112.081 21.3327 111.685 21.0749 111.43L19.5442 109.918Z" fill="#FF4848"/>
<path d="M26.7622 110.007C26.7944 109.647 26.2312 109.648 26.2006 110.007C26.1522 110.58 26.1921 111.158 26.3187 111.72C26.3954 112.073 26.9379 111.924 26.8558 111.571C26.745 111.057 26.7134 110.53 26.7622 110.007Z" fill="#FF4848"/>
<path d="M108.752 16.9088C108.958 17.2027 109.442 16.9219 109.236 16.6257L104.869 10.4017C104.664 10.1078 104.179 10.3878 104.384 10.6848L108.752 16.9088Z" fill="black"/>
<path d="M92.3555 37.1554H99.2609C99.3354 37.1554 99.4068 37.1258 99.4595 37.0731C99.5121 37.0205 99.5417 36.949 99.5417 36.8746C99.5417 36.8001 99.5121 36.7287 99.4595 36.676C99.4068 36.6233 99.3354 36.5938 99.2609 36.5938H92.3555C92.281 36.5938 92.2096 36.6233 92.157 36.676C92.1043 36.7287 92.0747 36.8001 92.0747 36.8746C92.0747 36.949 92.1043 37.0205 92.157 37.0731C92.2096 37.1258 92.281 37.1554 92.3555 37.1554Z" fill="black"/>
<path d="M41.0704 42.5263C43.5692 40.53 46.2037 38.7098 48.9548 37.0787C49.0191 37.0411 49.0659 36.9794 49.0847 36.9073C49.1036 36.8352 49.093 36.7586 49.0554 36.6943C49.0177 36.63 48.9561 36.5833 48.884 36.5644C48.8119 36.5456 48.7353 36.5561 48.671 36.5938C45.8519 38.2096 43.1762 40.0634 40.673 42.135C40.3929 42.3606 40.7919 42.7565 41.0704 42.5263Z" fill="black"/>
<path d="M39.8339 40.9865C42.3102 38.9172 45.0385 37.1698 47.9539 35.786C48.2799 35.6326 47.9953 35.1461 47.6707 35.3011C44.7139 36.7094 41.9472 38.4862 39.4365 40.5891C39.1595 40.8216 39.5584 41.2167 39.8339 40.9865Z" fill="black"/>
<path d="M100.503 129.197C97.8441 132.462 94.7873 135.382 91.4036 137.888C91.1158 138.101 91.3951 138.588 91.6867 138.373C95.1121 135.845 98.2055 132.895 100.894 129.594C101.126 129.316 100.731 128.92 100.503 129.197Z" fill="black"/>
<path d="M92.6744 139.686C92.382 139.894 92.6621 140.381 92.9575 140.171C96.9125 137.356 100.379 133.911 103.218 129.974C103.43 129.681 102.943 129.4 102.733 129.69C99.9442 133.545 96.547 136.921 92.6744 139.686Z" fill="black"/>
<path d="M120.765 33.2208C120.765 33.1227 120.726 33.0286 120.657 32.9593C120.587 32.8899 120.493 32.851 120.395 32.851C120.297 32.851 120.203 32.8899 120.134 32.9593C120.064 33.0286 120.025 33.1227 120.025 33.2208V40.2313C120.032 40.3303 120.076 40.423 120.148 40.4906C120.221 40.5582 120.317 40.5956 120.416 40.595C120.514 40.5962 120.609 40.5585 120.68 40.49C120.75 40.4216 120.791 40.328 120.793 40.2297C120.824 38.208 120.766 33.2722 120.765 33.2208Z" fill="black"/>
<path d="M137.726 57.6022C137.402 57.2346 136.863 57.761 137.184 58.1262L142.032 63.6298C142.355 63.9981 142.894 63.471 142.569 63.1065L137.726 57.6022Z" fill="black"/>
<path d="M150.555 31.8382C150.527 31.7461 150.465 31.6684 150.381 31.6211C150.297 31.5738 150.198 31.5606 150.105 31.5842C148.067 32.1144 145.843 32.7397 143.108 33.5523C143.011 33.5792 142.93 33.6433 142.881 33.7305C142.832 33.8176 142.82 33.9206 142.846 34.0169C142.873 34.1131 142.938 34.1947 143.025 34.2437C143.112 34.2927 143.215 34.3051 143.311 34.2781L150.308 32.3101C150.403 32.2801 150.482 32.2136 150.529 32.1251C150.575 32.0367 150.584 31.9335 150.555 31.8382Z" fill="black"/>
<path d="M132.019 17.3039L137.726 10.8051C138.045 10.4414 137.51 9.9105 137.184 10.2811L131.477 16.7798C131.158 17.1435 131.692 17.6737 132.019 17.3039Z" fill="black"/>
<path d="M138.807 45.8762C138.514 45.0705 138.307 44.802 136.32 41.5296C132.992 36.0444 128.849 29.2189 120.955 17.5618C120.918 17.5128 120.87 17.4733 120.815 17.4462C120.76 17.4192 120.699 17.4055 120.637 17.4062C120.576 17.4068 120.515 17.4219 120.461 17.4501C120.406 17.4783 120.359 17.5189 120.322 17.5687C115.16 25.2874 103.419 44.6094 103.213 45.0322C102.816 45.8513 102.613 46.7509 102.62 47.6611C102.627 48.5713 102.844 49.4676 103.254 50.2803C103.664 51.093 104.256 51.8002 104.984 52.347C105.711 52.8937 106.555 53.2654 107.45 53.433C108.897 53.6931 109.921 53.3562 111.429 52.9588C110.198 54.8309 108.308 56.1726 106.135 56.7184C103.334 57.534 100.987 56.4353 99.0601 55.2529C96.0271 53.3908 94.3099 51.7442 90.6132 48.8685C89.4223 47.5101 88.1128 46.2604 86.7002 45.1342C83.1125 42.3997 76.2899 39.9115 69.1298 40.5092C68.195 40.1067 67.3736 39.4806 66.7379 38.6858C66.1021 37.891 65.6717 36.952 65.4846 35.9516C65.1953 33.8094 66.9224 31.2137 65.5766 29.0807C65.3286 28.6753 64.97 28.3491 64.5429 28.1405C64.1159 27.9319 63.6381 27.8495 63.1659 27.903C62.7094 28.0101 62.2984 28.2586 61.9915 28.6131C61.6847 28.9676 61.4977 29.41 61.4572 29.8772C61.3881 30.5021 61.2332 31.1145 60.9968 31.6971C59.9526 33.6153 56.0503 36.4258 54.3845 37.6258C50.9618 40.0918 49.4741 40.9672 46.0912 43.6872C42.3937 46.6641 38.5321 49.902 35.5267 53.8688C33.2702 56.8465 30.5548 61.5076 30.4313 66.7956C30.2272 75.5033 39.3707 81.7427 48.3278 82.7432C51.8035 83.1268 55.3193 82.6032 58.5324 81.2233C60.4034 82.9731 62.4746 84.4959 64.7027 85.7601C65.3066 88.3987 63.6761 90.8755 61.9406 92.3172C57.1689 96.2855 51.3178 94.6404 44.1584 101.467C42.5134 103.035 40.2454 105.46 39.5549 108.411C39.089 110.45 39.1767 112.578 39.8088 114.572C40.2199 115.998 41.0044 117.288 42.0811 118.309C43.1577 119.331 44.4876 120.046 45.9331 120.381C43.4646 120.369 41.0254 119.846 38.7695 118.843C36.5135 117.841 34.49 116.382 32.8267 114.558C31.797 113.389 30.2387 111.08 31.362 108.747C31.9812 107.689 32.5244 107.511 33.5717 106.549C33.857 106.326 34.096 106.05 34.2753 105.735C34.3916 105.474 34.4293 105.185 34.3839 104.903C34.3386 104.621 34.212 104.358 34.0198 104.147C35.1377 102.105 34.2346 99.5548 33.2733 97.7663C32.493 96.3154 30.3577 92.4461 30.3577 92.4461C33.4175 86.9133 34.9612 84.62 34.3996 81.732C34.2832 81.1838 34.0564 80.6651 33.7331 80.2074C33.4098 79.7497 32.9967 79.3626 32.519 79.0696C31.0128 78.2304 29.2983 77.8389 27.5771 77.9409H4.99266C4.89343 77.9429 4.79883 77.9832 4.72873 78.0535C4.65862 78.1237 4.61847 78.2184 4.6167 78.3176V106.573C4.61867 106.672 4.65901 106.767 4.72926 106.837C4.79951 106.907 4.8942 106.947 4.99343 106.949H13.174C13.8645 107.73 14.6088 108.449 15.3761 109.174C13.5676 123.982 24.0684 138.228 38.8589 142.243C48.4966 144.86 61.0843 143.841 70.8815 141.553C80.7692 139.245 93.8687 134.181 100.166 123.16C102.949 123.214 108.015 122.89 111.112 120.137C115.809 115.963 115.5 105.861 108.215 99.5793C105.553 97.2621 102.252 95.8048 98.7455 95.3993C99.3171 93.4294 99.3434 91.3414 98.8215 89.3577C98.2997 87.3741 97.2493 85.5693 95.7823 84.1358C97.6755 82.7935 99.1459 80.9384 100.021 78.7887C105.621 78.8269 111.04 76.8042 115.246 73.1056C118.062 70.738 120.497 67.9496 122.463 64.8391C124.852 60.8332 127.015 53.9647 127.491 52.4002C127.951 52.5176 130.728 53.2235 131.657 53.4706C132.693 53.757 133.786 53.7553 134.821 53.4656C135.855 53.176 136.791 52.6093 137.527 51.8268C138.263 51.0443 138.771 50.0757 138.996 49.0255C139.222 47.9754 139.157 46.8835 138.807 45.8677V45.8762ZM97.8892 95.6317C97.8657 95.7288 97.8811 95.8313 97.9319 95.9172C97.9828 96.0032 98.0652 96.0659 98.1616 96.0921C98.2332 96.1045 98.3054 96.1127 98.378 96.1167C101.831 96.4783 105.09 97.8875 107.718 100.155C110.347 102.423 112.219 105.44 113.083 108.803C113.855 112.074 113.666 116.866 110.587 119.602C108.512 121.448 105.146 122.391 100.582 122.405C103.696 116.589 104.235 110.15 102.059 104.716C101.332 102.877 100.244 101.201 98.859 99.7887C97.4742 98.3762 95.8207 97.255 93.9959 96.4913C92.1712 95.7276 90.2121 95.3368 88.2339 95.3419C86.2558 95.347 84.2987 95.7479 82.4779 96.521C81.6662 96.4404 80.9964 96.4397 80.2145 96.3837C79.7393 96.3775 79.2685 96.2914 78.8219 96.1289C78.7208 96.0986 78.6317 96.0373 78.5672 95.9537C78.5027 95.87 78.466 95.7683 78.4624 95.6628C78.4587 95.5572 78.4883 95.4532 78.5469 95.3653C78.6055 95.2774 78.6901 95.2102 78.7889 95.1729C79.5112 94.7584 80.2982 94.4686 81.1168 94.3159C82.2363 94.009 83.9994 93.5939 84.5166 92.5558C85.092 91.4049 83.9327 89.5312 81.0946 89.6624C79.1426 89.753 77.2958 90.442 75.3761 90.6322C73.8964 90.8448 72.3895 90.5224 71.1263 89.723C70.5243 89.2975 70.08 88.6849 69.8626 87.9806C69.2672 85.968 69.6224 85.1179 68.8858 83.5558C69.458 81.9615 70.2953 80.4754 71.3626 79.1601C72.2911 77.9862 73.5653 77.134 75.0048 76.724C76.8171 76.2253 79.1196 75.8072 80.8475 77.0079C81.6916 77.5985 82.3583 78.4084 82.7757 79.3502C83.1931 80.292 83.3454 81.3299 83.216 82.3519C83.1792 82.655 83.5229 82.8031 83.7731 82.6934C85.2191 82.0436 86.7947 81.7333 88.3791 81.7862C89.9635 81.8391 91.5149 82.2537 92.9144 82.9984C94.3139 83.7431 95.5245 84.7982 96.4535 86.0827C97.3826 87.3673 98.0054 88.8474 98.2744 90.4097C98.5863 92.1552 98.4538 93.951 97.8892 95.6317ZM65.3679 88.5269C66.0324 86.2197 65.061 85.0274 65.0495 83.7062C65.0244 83.4306 65.1027 83.1556 65.2692 82.9346C65.4358 82.7137 65.6785 82.5626 65.9503 82.5107C66.5361 82.5261 67.1004 82.735 67.5551 83.1047C68.0098 83.4745 68.3294 83.9843 68.4638 84.5547C68.6494 85.3811 68.7867 86.2176 68.8751 87.0599C68.9355 87.8456 69.2011 88.6018 69.6455 89.2527C70.0898 89.9036 70.6973 90.4264 71.4071 90.7688C75.0431 92.4461 78.3362 90.4143 81.4168 90.4151C82.5109 90.4151 83.9741 90.9 83.8981 92.0264C83.8437 92.8351 81.8641 93.3238 81.0723 93.5455C80.3373 93.7512 80.2697 93.7757 79.8892 93.8885C79.1361 94.0336 78.4488 94.415 77.9273 94.9773C77.8177 95.1403 77.7484 95.3271 77.7252 95.5221C77.702 95.7172 77.7256 95.915 77.794 96.0992C77.8623 96.2834 77.9735 96.4486 78.1184 96.5814C78.2632 96.7141 78.4376 96.8104 78.627 96.8624C80.7508 97.553 83.9143 96.6791 84.5265 98.4115C84.6082 98.6383 84.6375 98.8805 84.6122 99.1202C84.5869 99.3598 84.5077 99.5907 84.3806 99.7954C84.2534 100 84.0815 100.173 83.8778 100.302C83.6742 100.431 83.444 100.512 83.2045 100.539C81.1989 100.923 78.1598 100.479 77.7946 101.889C77.6281 102.529 78.1943 102.886 78.8419 103.024C80.7171 103.413 81.7966 103.189 83.5268 103.838C83.8226 103.951 84.0882 104.13 84.3025 104.363C84.4885 104.641 84.5791 104.972 84.5607 105.306C84.5423 105.64 84.4159 105.959 84.2004 106.215C83.8767 106.522 83.4555 106.705 83.0104 106.733C80.6449 107.04 78.3401 105.772 75.3662 107.319C74.4764 107.829 73.6504 108.443 72.9055 109.148C67.0598 114.266 57.3991 118.694 47.5943 119.872C46.4415 119.831 45.3132 119.528 44.2945 118.987C43.2758 118.445 42.3935 117.68 41.7139 116.748C40.8937 115.501 40.3512 114.092 40.1231 112.617C39.895 111.141 39.9867 109.635 40.3919 108.198C40.7696 106.98 41.3644 105.841 42.1474 104.835C44.0412 102.332 46.4167 100.234 49.1342 98.6632C52.3306 96.8218 54.7989 96.5409 58.4825 95.1384C62.091 93.7635 64.5362 91.4156 65.3679 88.5269ZM52.0828 119.882C59.6411 118.292 67.8454 114.538 73.4127 109.707C75.7529 107.676 76.9291 107.033 79.9682 107.357C81.7053 107.543 83.9043 107.903 84.9163 106.513C85.1056 106.253 85.2348 105.955 85.2946 105.639C85.3544 105.323 85.3432 104.997 85.2619 104.686C85.1807 104.375 85.0313 104.086 84.8246 103.84C84.618 103.594 84.3592 103.396 84.0669 103.262C82.2746 102.361 80.2375 102.691 78.6784 102.193C78.6225 102.168 78.5693 102.138 78.5196 102.102C78.5818 101.35 82.6736 101.631 84.0017 101.081C84.4243 100.897 84.782 100.591 85.0287 100.202C85.2753 99.8129 85.3996 99.3587 85.3853 98.8982C85.371 98.4378 85.2188 97.9921 84.9485 97.6191C84.6782 97.246 84.3021 96.9627 83.869 96.8057C87.2691 95.6899 90.9663 95.9095 94.2104 97.4199C97.4546 98.9303 100.003 101.618 101.337 104.939C103.475 110.346 102.949 116.471 99.8465 122.184C95.991 129.293 88.9421 134.748 78.8956 138.4C70.2819 141.441 61.2174 143.009 52.0828 143.038V119.882ZM95.203 83.631C93.6623 82.3686 91.8164 81.5342 89.8508 81.2119C87.8853 80.8896 85.8695 81.0907 84.0063 81.7949C84.0536 80.4781 83.6799 79.1805 82.9396 78.0905C82.1992 77.0005 81.1307 76.1749 79.8892 75.7335C78.3995 75.3901 76.8467 75.4334 75.3784 75.8593C74.7634 75.9883 74.1641 76.183 73.5907 76.4402C70.9352 77.6678 69.2879 80.568 68.361 82.8414C68.006 82.4105 67.5332 82.0924 67.0002 81.9258C66.4673 81.7593 65.8975 81.7517 65.3603 81.9038C65.0318 82.068 64.7571 82.3226 64.5685 82.6377C64.38 82.9528 64.2854 83.3153 64.2961 83.6824C64.3043 84.038 64.3509 84.3917 64.4349 84.7374C62.5933 83.6333 60.8682 82.3456 59.2858 80.8941C63.196 79.0941 66.5439 76.2658 68.9718 72.7112C69.5177 71.8938 70.0165 71.0459 70.4656 70.1716C70.5127 70.0854 70.5249 69.9845 70.4998 69.8896C70.4747 69.7947 70.4141 69.713 70.3306 69.6614C55.9229 60.7941 53.4891 59.2826 53.094 59.0332C56.7938 52.1133 56.5582 52.3665 56.9917 51.5439C57.6079 51.8033 58.1868 52.1434 58.7135 52.5552C59.3425 53.046 60.0925 53.3577 60.884 53.4575C62.6104 53.67 64.0697 51.6867 62.7163 49.3074C63.6853 50.0156 64.4541 50.9792 66.1014 50.7997C66.4838 50.7163 66.829 50.5119 67.0861 50.2168C67.3432 49.9218 67.4983 49.5517 67.5286 49.1616C67.6644 47.3386 66.3976 46.49 65.6273 45.2907C67.0527 45.6782 68.5362 45.8058 70.0068 45.6675C71.8912 45.4895 72.9316 44.8404 73.0997 43.737C73.1281 43.315 73.0365 42.8935 72.8356 42.5212C72.6347 42.1489 72.3325 41.8411 71.9641 41.6332C71.6521 41.455 71.3269 41.301 70.9912 41.1728C75.2287 41.1422 79.4169 42.0826 83.2345 43.9219C85.521 45.0128 87.56 46.5602 89.226 48.4688C92.6137 52.1633 95.3139 56.4335 97.1994 61.078C98.7245 64.8075 99.6405 68.7579 99.9125 72.778C100.194 77.2949 99.5258 80.367 95.2038 83.631H95.203ZM64.9145 36.8838C65.2219 37.8018 65.7099 38.649 66.35 39.3754C66.99 40.1017 67.769 40.6925 68.6411 41.113C69.9147 41.7383 70.5424 41.7191 71.5805 42.2823C72.1897 42.6813 72.6186 43.424 72.1905 44.0355C71.9799 44.2744 71.724 44.4693 71.4378 44.6089C71.1515 44.7485 70.8404 44.83 70.5224 44.8488C68.6635 45.1348 66.7626 44.9501 64.9935 44.3117C64.9282 44.2938 64.8594 44.2938 64.7941 44.3117C64.7288 44.3296 64.6696 44.3646 64.6225 44.4133C64.5754 44.4619 64.5423 44.5223 64.5266 44.5881C64.5109 44.6539 64.5131 44.7228 64.5331 44.7874C65.3917 46.8099 66.4137 46.8828 66.7697 48.6099C66.8454 48.9 66.8105 49.2078 66.6718 49.4736C66.5331 49.7393 66.3006 49.944 66.0193 50.0478C65.6458 50.0965 65.2661 50.0582 64.9099 49.9357C64.5537 49.8133 64.2307 49.61 63.9661 49.3419C63.3242 48.7273 62.5545 48.262 61.7119 47.9792C61.6394 47.9613 61.5631 47.9653 61.4928 47.9906C61.4225 48.0159 61.3612 48.0614 61.3167 48.1214C61.2722 48.1814 61.2464 48.2533 61.2426 48.3279C61.2388 48.4025 61.2571 48.4766 61.2953 48.5409C61.8985 49.2223 62.3074 50.0533 62.4792 50.947C62.5383 51.297 62.4765 51.6568 62.304 51.967C62.1315 52.2773 61.8586 52.5196 61.5301 52.6542C60.0132 53.1015 58.5784 51.1465 56.9058 50.723C56.8256 50.7025 56.741 50.7085 56.6646 50.74C56.5881 50.7715 56.5239 50.8269 56.4815 50.8979C55.1004 53.3225 51.2863 60.7772 50.0234 63.2509C49.8009 63.6874 50.4585 64.055 50.6794 63.6215C51.3525 62.3114 52.0367 61.007 52.7319 59.7084C52.7319 59.7084 68.625 69.5118 69.6293 70.1302C65.9012 77.1737 58.6498 81.8739 51.1298 82.1133C43.2976 82.3604 33.5403 77.4936 31.5262 69.8486C30.9796 67.4467 31.0925 64.9417 31.8531 62.5987C33.8763 55.556 39.2311 50.3616 44.1953 46.2092C46.6396 44.1001 49.2034 42.1337 51.8741 40.3196C54.7613 38.2941 58.1863 35.9562 60.5173 33.5577C61.3829 32.7809 61.9408 31.719 62.0894 30.5654C62.2229 29.7981 62.4063 28.7447 63.3324 28.6365C63.7853 28.6274 64.2266 28.7804 64.5766 29.068C64.9266 29.3555 65.1624 29.7587 65.2413 30.2048C65.7608 32.2971 64.1902 34.0403 64.9145 36.8838ZM51.3132 143.038C41.9257 143.089 33.2748 140.792 26.1868 134.521C18.8119 128 14.9564 118.288 16.1249 109.188C16.1427 109.076 16.1278 108.962 16.082 108.859C16.0363 108.756 15.9616 108.668 15.8671 108.606C13.9113 106.743 12.6707 105.499 11.8397 103.479C11.551 102.804 11.4218 102.071 11.4622 101.338C11.4915 101.174 11.5616 101.021 11.6662 100.891C11.7707 100.762 11.9063 100.661 12.0602 100.598C12.2142 100.535 12.3815 100.512 12.5467 100.531C12.7119 100.55 12.8696 100.611 13.0052 100.707C13.6062 101.119 14.0863 101.683 14.3955 102.343C15.2838 103.828 16.4148 105.155 17.7415 106.266C18.5855 106.972 19.6351 107.851 20.8328 107.85C21.4046 107.845 21.955 107.632 22.3812 107.25C22.9913 106.718 23.4358 106.022 23.6617 105.244C23.7264 104.563 23.9443 103.905 24.2993 103.321C24.6001 102.806 25.0708 102.412 25.6305 102.207C25.9049 102.148 26.1914 102.201 26.4272 102.353C26.6629 102.505 26.8287 102.745 26.8881 103.019C26.9803 103.459 27.001 103.912 26.9495 104.359C26.8853 105.739 26.5832 107.099 26.0564 108.377C25.886 108.794 26.5083 109.028 26.7385 108.684C27.9889 106.851 29.7869 105.46 31.8753 104.711C33.9607 103.988 33.8556 105.325 33.3462 105.728L33.3377 105.735C32.8068 106.266 32.1868 106.716 31.6282 107.213C31.1258 107.673 30.7386 108.246 30.4979 108.883C30.2572 109.521 30.1698 110.206 30.2426 110.884C30.7666 116.369 40.8715 123.411 51.3293 120.442C51.3278 122.373 51.3117 141.492 51.3132 143.038ZM5.41312 78.6944H27.5771C29.9618 78.6944 32.9403 79.2038 33.5909 81.6054C33.8694 82.6809 33.8053 83.8166 33.4075 84.854C32.8855 86.2337 32.2436 87.5652 31.4894 88.833C30.8679 89.9072 30.2733 91.0496 29.6779 92.123C29.6038 92.2109 29.5623 92.3218 29.5607 92.4367C29.559 92.5517 29.5971 92.6637 29.6687 92.7537C30.2664 93.8456 31.7403 96.6069 32.3924 97.7279C33.068 98.8459 33.5238 100.083 33.7352 101.372C33.8532 102.181 33.7321 103.008 33.3868 103.75C33.045 103.671 32.6885 103.681 32.3518 103.779C30.7161 104.221 29.209 105.046 27.9546 106.185C27.8011 106.189 27.6454 106.192 27.4873 106.194C27.6429 105.393 27.72 104.579 27.7175 103.763C27.7517 103.396 27.6984 103.026 27.562 102.683C27.4255 102.34 27.2099 102.035 26.9326 101.791C25.5623 100.669 23.7101 102.221 23.1638 103.957C23.0854 104.763 22.799 105.534 22.3328 106.196H18.8809C17.8328 105.43 16.8962 104.522 16.098 103.498C14.8121 101.838 14.7515 101.083 13.629 100.207C13.3321 99.9777 12.9766 99.8368 12.6032 99.8004C12.2299 99.764 11.8538 99.8337 11.5182 100.001C11.2533 100.168 11.0372 100.402 10.8922 100.679C10.7471 100.957 10.6783 101.268 10.6927 101.58C10.7956 103.279 11.4465 104.899 12.5479 106.196H5.37015C5.37015 71.5519 5.42616 80.5059 5.41312 78.6944ZM100.665 72.7665C100.094 65.0746 97.3396 57.7056 92.7248 51.5255C94.1488 52.6695 95.7869 53.9493 97.5171 55.1593C99.0401 56.225 102.007 57.9782 104.749 57.7504C107.437 57.4414 109.898 56.0985 111.613 54.0061C113.038 52.1516 113.96 49.5376 113.808 45.9583C113.639 41.9424 115.509 41.38 116.404 41.7905C117.574 42.4964 116.949 44.0631 117.503 46.6012C117.844 48.1657 118.676 50.146 120.702 50.6946C123.265 51.3897 125.244 51.9015 126.749 52.2567C125.622 56.0675 124.181 59.778 122.439 63.3498C120.659 66.5148 118.365 69.3617 115.651 71.7744C111.354 75.6629 106.053 78.102 100.257 78.0545C100.68 76.3258 100.818 74.5396 100.665 72.7665ZM118.375 46.9764C118.083 45.8379 117.937 44.6669 117.94 43.4915C117.856 42.2163 117.442 41.4299 116.675 41.0854C116.262 40.9342 115.816 40.9011 115.386 40.9897C114.955 41.0784 114.558 41.2853 114.239 41.5872C112.539 42.9805 113.172 45.5056 113.057 47.5933C112.979 49.1349 112.601 50.6465 111.945 52.0434C111.945 52.0434 110.304 52.4624 109.822 52.589C108.831 52.8515 107.785 52.812 106.817 52.4755C105.849 52.1391 105.003 51.521 104.389 50.7006C103.775 49.8802 103.42 48.895 103.37 47.8714C103.32 46.8479 103.577 45.8327 104.108 44.9562C104.841 43.7455 116.773 24.2593 120.645 18.4403C129.816 31.9733 134.065 39.4166 137.264 44.525C137.567 44.9868 137.828 45.4747 138.044 45.9828C138.342 46.7773 138.439 47.633 138.326 48.4739C138.214 49.3149 137.896 50.1151 137.4 50.8036C136.904 51.4921 136.246 52.0475 135.484 52.4207C134.722 52.7938 133.88 52.9731 133.032 52.9427C131.954 52.833 132.572 52.9427 120.771 49.9081C120.751 49.9029 120.73 49.8998 120.708 49.8989C120.116 49.6312 119.596 49.2267 119.19 48.7186C118.784 48.2106 118.505 47.6135 118.375 46.9764Z" fill="black"/>
<path d="M14.6445 87.0021H21.8184C21.8679 87.0019 21.9168 86.9919 21.9624 86.9727C22.008 86.9535 22.0494 86.9256 22.0842 86.8904C22.119 86.8553 22.1466 86.8136 22.1653 86.7678C22.184 86.722 22.1934 86.6729 22.1932 86.6235C22.1929 86.574 22.183 86.5251 22.1638 86.4795C22.1446 86.4338 22.1167 86.3925 22.0815 86.3576C22.0463 86.3228 22.0047 86.2953 21.9589 86.2766C21.9131 86.2579 21.864 86.2484 21.8146 86.2487H14.6445C14.5951 86.2503 14.5465 86.2617 14.5016 86.2823C14.4567 86.3028 14.4163 86.3321 14.3828 86.3684C14.3338 86.4213 14.301 86.4871 14.2882 86.5581C14.2754 86.6291 14.2833 86.7023 14.3108 86.769C14.3383 86.8357 14.3844 86.8931 14.4435 86.9344C14.5026 86.9757 14.5724 86.9992 14.6445 87.0021Z" fill="black"/>
<path d="M14.6453 98.3008H21.8192C21.8686 98.2992 21.9171 98.2878 21.962 98.2672C22.0069 98.2467 22.0473 98.2174 22.0808 98.1811C22.1301 98.128 22.1629 98.0618 22.1755 97.9904C22.1882 97.9191 22.18 97.8456 22.152 97.7788C22.124 97.712 22.0774 97.6547 22.0177 97.6136C21.958 97.5726 21.8878 97.5496 21.8154 97.5474H14.6453C14.5454 97.5474 14.4495 97.5871 14.3789 97.6577C14.3082 97.7284 14.2686 97.8242 14.2686 97.9241C14.2686 98.024 14.3082 98.1198 14.3789 98.1905C14.4495 98.2611 14.5454 98.3008 14.6453 98.3008Z" fill="black"/>
<path d="M12.101 73.2936C12.279 73.625 12.3311 73.8061 12.5797 73.8061C12.6467 73.8077 12.7129 73.7918 12.7717 73.7599C12.8306 73.7281 12.8801 73.6813 12.9154 73.6244C12.9506 73.5674 12.9703 73.5023 12.9725 73.4353C12.9747 73.3684 12.9594 73.3021 12.9281 73.2429L9.58586 67.0173C9.35568 66.5869 8.70197 66.9621 8.93215 67.3918C11.9038 72.9268 12.0449 73.1915 12.101 73.2936Z" fill="black"/>
<path d="M15.2707 73.6931C15.3255 73.7426 15.3929 73.7759 15.4655 73.7892C15.5382 73.8025 15.613 73.7952 15.6818 73.7683C15.7505 73.7414 15.8103 73.6958 15.8546 73.6367C15.8988 73.5775 15.9257 73.5073 15.9321 73.4337V65.8884C15.9321 65.7914 15.8936 65.6983 15.8249 65.6297C15.7563 65.561 15.6632 65.5225 15.5661 65.5225C15.4691 65.5225 15.376 65.561 15.3073 65.6297C15.2387 65.6983 15.2001 65.7914 15.2001 65.8884C15.1564 68.0544 15.151 73.0823 15.1556 73.4307C15.1563 73.4799 15.1668 73.5285 15.1866 73.5735C15.2063 73.6186 15.235 73.6593 15.2707 73.6931Z" fill="black"/>
<path d="M18.7511 73.5666L22.144 67.4446C22.1939 67.358 22.2074 67.2551 22.1815 67.1585C22.1556 67.062 22.0924 66.9797 22.0058 66.9297C21.9193 66.8798 21.8164 66.8662 21.7198 66.8921C21.6233 66.918 21.541 66.9812 21.491 67.0678L18.0982 73.1906C18.0489 73.2771 18.0359 73.3797 18.062 73.4758C18.0881 73.5719 18.1513 73.6538 18.2376 73.7035C18.3239 73.7532 18.4264 73.7667 18.5226 73.741C18.6188 73.7153 18.701 73.6526 18.7511 73.5666Z" fill="black"/>
<path d="M77.9778 82.6135C76.3197 82.2774 74.9486 82.767 74.2182 83.9631C73.6991 84.7975 73.4979 85.7908 73.6512 86.7613C74.1015 89.5066 79.3005 90.5309 80.1729 86.4836C80.5512 84.7204 79.7885 82.9787 77.9778 82.6135ZM77.3548 88.4048C76.7402 88.5092 76.1085 88.3951 75.5693 88.0822C75.0301 87.7694 74.6175 87.2776 74.4031 86.6923C74.2925 86.1021 74.355 85.4924 74.5832 84.9369C74.8114 84.3815 75.1954 83.9039 75.689 83.5619C76.3467 83.2558 77.088 83.1791 77.7944 83.344C80.3417 83.7544 79.9389 88.0642 77.3578 88.4087L77.3548 88.4048Z" fill="black"/>
<path d="M74.187 30.9073C72.4384 29.9651 69.3847 30.8973 68.279 33.4884C68.0439 34.0899 67.9557 34.7389 68.0218 35.3813C68.0879 36.0238 68.3063 36.6412 68.659 37.1823C69.0117 37.7234 69.4883 38.1725 70.0495 38.4923C70.6106 38.8121 71.2399 38.9934 71.8852 39.0211C72.472 39.0276 73.0538 38.9133 73.5945 38.6853C74.1353 38.4574 74.6234 38.1207 75.0285 37.6962C75.4336 37.2716 75.7471 36.7683 75.9495 36.2175C76.1518 35.6666 76.2388 35.0801 76.2049 34.4943C76.1699 33.7808 75.9693 33.0853 75.6191 32.4627C75.2688 31.8402 74.7785 31.3076 74.187 30.9073ZM74.6381 37.0255C74.1437 37.6011 73.4761 38.0012 72.7353 38.1658C71.9945 38.3304 71.2203 38.2506 70.5286 37.9385C69.8067 37.5361 69.254 36.8869 68.9721 36.1099C68.6903 35.3329 68.6981 34.4803 68.9941 33.7086C69.3627 32.8616 70.0152 32.1697 70.8392 31.7522C71.6631 31.3346 72.607 31.2177 73.5079 31.4214C73.9862 31.6823 74.4015 32.0448 74.7247 32.4834C75.0479 32.922 75.2712 33.426 75.3789 33.96C75.4866 34.4941 75.4761 35.0453 75.3482 35.5748C75.2202 36.1044 74.9778 36.5995 74.6381 37.0255Z" fill="black"/>
<path d="M67.4665 29.1759C67.4632 29.2243 67.47 29.2728 67.4866 29.3184C67.5032 29.364 67.5292 29.4055 67.563 29.4404C67.5967 29.4753 67.6373 29.5027 67.6823 29.5208C67.7273 29.5389 67.7756 29.5474 67.8241 29.5457C68.0334 29.5157 68.2335 29.44 68.4103 29.324C71.9113 27.6168 73.6277 27.1626 76.6752 25.6672C77.7686 25.1301 78.196 23.8373 77.2998 23.192C77.0143 23.047 76.6984 22.972 76.3782 22.9732C76.0581 22.9744 75.7428 23.0518 75.4584 23.1989C75.613 22.8264 75.6391 22.413 75.5327 22.024C75.4263 21.635 75.1933 21.2925 74.8706 21.0505C74.1985 20.5764 73.3998 20.9431 72.7798 21.3153C71.9096 21.8394 71.1617 22.5436 70.5862 23.3807C70.5248 22.6656 70.0407 22.0626 69.3294 22.1531C68.8196 22.2624 68.3719 22.5648 68.0803 22.9971C67.7384 23.5351 67.532 24.148 67.4788 24.7833C67.2617 27.2408 67.5793 27.2347 67.4665 29.1759ZM69.845 24.9475C69.8675 25.0251 69.9141 25.0936 69.9782 25.1428C70.0422 25.1921 70.1204 25.2196 70.2012 25.2213C70.282 25.223 70.3612 25.1989 70.4273 25.1524C70.4934 25.1059 70.5429 25.0395 70.5686 24.9628C71.1403 23.6075 72.1605 22.4898 73.4581 21.7971C73.565 21.6937 73.6986 21.6221 73.8438 21.5902C73.9891 21.5584 74.1404 21.5676 74.2808 21.6168C74.4211 21.666 74.545 21.7532 74.6386 21.8688C74.7322 21.9844 74.7918 22.1237 74.8108 22.2713C74.8106 22.6232 74.7377 22.9714 74.5965 23.2938C74.4554 23.6163 74.2491 23.906 73.9906 24.1449C73.6936 24.5132 74.1824 25.015 74.5277 24.6705C74.8702 24.3294 75.2817 24.0654 75.7346 23.8963C75.9801 23.805 76.5555 23.5894 76.874 23.8142C77.1571 24.0114 76.999 24.4503 76.7788 24.672C75.7292 25.5605 72.0732 26.713 68.2277 28.5789C68.2407 26.7559 67.9798 25.3227 68.4187 23.9754C68.7647 22.9112 69.819 22.4094 69.8404 23.5334C69.791 24.0036 69.7925 24.4777 69.845 24.9475Z" fill="black"/>
<path d="M39.4339 75.7364C38.3787 75.07 37.4632 74.2045 36.7385 73.1884C36.4585 72.7955 35.8117 73.1815 36.0979 73.5827C36.8899 74.6991 37.8919 75.6504 39.048 76.3832C39.4608 76.6441 39.8498 76.0004 39.4339 75.7364Z" fill="black"/>
<path d="M59.4742 45.9665C58.758 45.7181 58.0648 45.4077 57.4026 45.0389C57.3594 45.0151 57.3119 45.0001 57.2629 44.9948C57.2139 44.9895 57.1644 44.9941 57.1171 45.0082C57.0471 45.0285 56.9845 45.0686 56.9369 45.1238C56.8892 45.1789 56.8586 45.2467 56.8487 45.3188C56.8388 45.391 56.85 45.4646 56.8811 45.5305C56.9121 45.5964 56.9616 45.6519 57.0235 45.6903C57.7658 46.128 58.56 46.4711 59.3875 46.7115C59.4748 46.7031 59.5565 46.665 59.6192 46.6036C59.6818 46.5422 59.7215 46.4612 59.7316 46.374C59.7417 46.2869 59.7217 46.199 59.6749 46.1248C59.628 46.0507 59.5572 45.9948 59.4742 45.9665Z" fill="black"/>
<path d="M63.2883 42.1696L61.1745 41.011C60.7479 40.7808 60.3688 41.4284 60.7985 41.6639L62.9115 42.8225C63.3381 43.0565 63.7195 42.4051 63.2883 42.1696Z" fill="black"/>
<path d="M105.111 75.7579C106.449 75.2977 107.732 74.6895 108.935 73.9448C109.019 73.893 109.08 73.8103 109.104 73.7144C109.127 73.6185 109.112 73.5172 109.062 73.4322C109.012 73.3472 108.93 73.2853 108.835 73.26C108.739 73.2346 108.638 73.2477 108.552 73.2965C107.403 74.0102 106.178 74.5933 104.9 75.0351C104.438 75.1947 104.649 75.919 105.111 75.7579Z" fill="black"/>
<path d="M71.1385 97.0826C71.3058 97.0826 72.0431 96.768 73.8569 96.3752C74.3372 96.2724 74.1416 95.5427 73.6674 95.6463C72.7848 95.8379 71.9111 96.0683 71.0487 96.3368C70.9652 96.365 70.8939 96.421 70.8468 96.4956C70.7998 96.5702 70.7798 96.6587 70.7903 96.7462C70.8009 96.8337 70.8413 96.915 70.9047 96.9762C70.9681 97.0375 71.0507 97.0751 71.1385 97.0826Z" fill="black"/>
<path d="M71.9605 103.326C72.7281 102.889 73.5613 102.578 74.428 102.406C74.9045 102.314 74.7226 101.582 74.2423 101.676C73.3026 101.85 72.4012 102.189 71.5799 102.677C71.5024 102.732 71.4482 102.813 71.428 102.906C71.4079 102.999 71.4234 103.095 71.4713 103.177C71.5192 103.259 71.5961 103.32 71.6867 103.347C71.7774 103.375 71.8751 103.368 71.9605 103.326Z" fill="black"/>
<path d="M43.1814 112.377C43.0748 111.899 42.3451 112.095 42.4533 112.568C42.6792 113.622 43.0697 114.635 43.6103 115.567C43.6432 115.622 43.6898 115.667 43.7455 115.699C43.8012 115.73 43.8641 115.746 43.928 115.745C43.9935 115.746 44.0579 115.729 44.115 115.697C44.1721 115.665 44.2198 115.618 44.2535 115.562C44.2872 115.506 44.3056 115.442 44.3071 115.376C44.3085 115.311 44.2929 115.246 44.2617 115.188C43.7716 114.307 43.4079 113.36 43.1814 112.377Z" fill="black"/>
<path d="M48.3361 140.802C46.8665 140.363 45.3893 139.951 43.9051 139.564C43.8576 139.552 43.8082 139.55 43.7597 139.557C43.7112 139.564 43.6646 139.581 43.6228 139.607C43.5602 139.644 43.5098 139.699 43.4777 139.764C43.4455 139.83 43.433 139.903 43.4416 139.975C43.4502 140.048 43.4796 140.116 43.5261 140.172C43.5727 140.228 43.6345 140.269 43.7041 140.291C44.1959 140.437 48.0054 141.54 48.231 141.54C48.3208 141.539 48.4071 141.505 48.4744 141.446C48.5417 141.386 48.5857 141.305 48.5984 141.216C48.611 141.127 48.5916 141.037 48.5435 140.961C48.4954 140.885 48.4219 140.829 48.3361 140.802Z" fill="black"/>
<path d="M19.6135 109.85C19.5422 109.779 19.4459 109.74 19.3457 109.74C19.2455 109.741 19.1496 109.781 19.0791 109.853C19.0086 109.924 18.9692 110.02 18.9697 110.12C18.9702 110.22 19.0105 110.316 19.0818 110.387L20.6117 111.898C20.6829 111.969 20.7793 112.008 20.8795 112.008C20.9798 112.008 21.0758 111.967 21.1465 111.896C21.2171 111.825 21.2565 111.729 21.2561 111.628C21.2556 111.528 21.2154 111.432 21.1442 111.361L19.6135 109.85Z" fill="black"/>
<path d="M26.8597 110.015C26.9035 109.527 26.1485 109.515 26.107 109.998C26.0573 110.581 26.0977 111.169 26.2267 111.74C26.3326 112.217 27.06 112.026 26.9549 111.55C26.8447 111.046 26.8126 110.528 26.8597 110.015Z" fill="black"/>
<path d="M108.675 16.9638C108.952 17.359 109.6 16.973 109.317 16.5702L104.95 10.3462C104.669 9.94644 104.029 10.34 104.307 10.7398L108.675 16.9638Z" fill="black"/>
<path d="M92.3541 37.2498H99.264C99.364 37.2498 99.4598 37.2101 99.5304 37.1394C99.6011 37.0688 99.6408 36.973 99.6408 36.8731C99.6408 36.7731 99.6011 36.6773 99.5304 36.6067C99.4598 36.536 99.364 36.4963 99.264 36.4963H92.3587C92.2587 36.4963 92.1629 36.536 92.0923 36.6067C92.0216 36.6773 91.9819 36.7731 91.9819 36.8731C91.9819 36.973 92.0216 37.0688 92.0923 37.1394C92.1629 37.2101 92.2587 37.2498 92.3587 37.2498H92.3541Z" fill="black"/>
<path d="M41.133 42.6029C43.6265 40.6049 46.2573 38.7845 49.0059 37.1553C49.0479 37.1301 49.0844 37.0967 49.1132 37.0572C49.1421 37.0177 49.1627 36.9728 49.174 36.9251C49.1909 36.8542 49.1868 36.7798 49.1624 36.7111C49.1379 36.6423 49.094 36.5822 49.036 36.5378C48.9781 36.4935 48.9085 36.4669 48.8358 36.4613C48.763 36.4557 48.6902 36.4713 48.6261 36.5062C45.8005 38.1234 43.1193 39.9806 40.6121 42.0574C40.2338 42.3681 40.7571 42.9098 41.133 42.6029Z" fill="black"/>
<path d="M39.8984 41.0599C42.3687 38.9959 45.0903 37.2529 47.9984 35.8724C48.4419 35.6614 48.0705 35.0061 47.6324 35.2141C44.6687 36.6263 41.8953 38.4074 39.3782 40.5151C39.0015 40.832 39.5293 41.3691 39.8984 41.0599Z" fill="black"/>
<path d="M100.976 129.654C101.283 129.278 100.737 128.757 100.429 129.137C97.7777 132.396 94.7276 135.31 91.3504 137.81C90.9599 138.099 91.3566 138.74 91.7479 138.45C95.1797 135.915 98.2799 132.961 100.976 129.654Z" fill="black"/>
<path d="M102.656 129.633C99.8776 133.484 96.4872 136.853 92.6198 139.608C92.2223 139.89 92.6198 140.532 93.0149 140.249C96.976 137.426 100.449 133.974 103.296 130.03C103.586 129.63 102.939 129.243 102.656 129.633Z" fill="black"/>
</svg>
