<svg width="117" height="117" viewBox="0 0 117 117" fill="none" xmlns="http://www.w3.org/2000/svg">
<path d="M44.9686 56.4183C44.0776 57.6539 42.4283 57.2177 42.2331 55.4914C40.9904 55.7981 39.897 56.5362 39.1477 57.574C38.9316 57.9007 38.9525 58.1087 38.8262 58.1597C38.6906 58.1754 38.5533 58.167 38.4207 58.1348C36.3351 58.0131 34.8341 59.6149 35.1765 61.427C34.6212 61.5689 34.1308 61.8958 33.7862 62.3539C33.4741 62.7468 33.2384 63.1945 33.091 63.6741C33.2463 63.666 38.2034 63.4134 39.1193 63.3567C39.1071 62.874 39.1013 62.3912 39.1019 61.9084C39.0411 61.0875 39.4043 60.2139 40.2391 60.2127C40.4271 60.2262 40.6095 60.2818 40.773 60.3755C40.9365 60.4691 41.0768 60.5985 41.1834 60.7538C41.4168 61.1082 41.5873 61.5001 41.6874 61.9124L42.097 63.1481C42.6809 63.1023 44.9281 62.9083 46.2761 62.7594C46.3133 60.5751 45.8668 58.4097 44.9686 56.4183ZM41.3491 59.5344C41.1751 59.3387 41.0656 59.0943 41.0354 58.8342C41.0052 58.5742 41.0559 58.3111 41.1805 58.0809C41.3081 57.8751 41.4878 57.7067 41.7015 57.5928C41.9151 57.4788 42.1551 57.4234 42.397 57.4321C42.415 57.4408 42.4354 57.4434 42.455 57.4396C42.7409 57.4945 43.0006 57.6423 43.1937 57.8602C43.3868 58.078 43.5024 58.3536 43.5226 58.644C43.5234 58.8962 43.449 59.1429 43.3088 59.3526C43.1686 59.5622 42.969 59.7253 42.7356 59.8209C42.5022 59.9165 42.2456 59.9403 41.9986 59.8893C41.7516 59.8382 41.5255 59.7147 41.3491 59.5344Z" fill="#2755A0"/>
<path d="M42.4561 57.4395C42.4365 57.4434 42.4162 57.4407 42.3982 57.432C42.1562 57.4233 41.9162 57.4788 41.7026 57.5927C41.489 57.7067 41.3092 57.875 41.1816 58.0808C41.0875 58.2497 41.0338 58.438 41.0246 58.631C41.0154 58.8241 41.051 59.0167 41.1287 59.1937C41.2063 59.3707 41.3239 59.5273 41.4721 59.6513C41.6204 59.7753 41.7954 59.8633 41.9833 59.9084C42.1712 59.9536 42.3671 59.9546 42.5555 59.9114C42.7439 59.8682 42.9197 59.782 43.0693 59.6595C43.2188 59.5371 43.3379 59.3817 43.4174 59.2055C43.4969 59.0293 43.5345 58.8371 43.5273 58.6439C43.5069 58.353 43.3907 58.0771 43.1969 57.8592C43.0031 57.6413 42.7426 57.4937 42.4561 57.4395Z" fill="#FC9070"/>
<path d="M18.0744 94.9115L20.3957 88.6237C20.4936 88.3589 20.0701 88.2448 19.9728 88.5078L17.6515 94.7951C17.5536 95.0604 17.9771 95.1745 18.0744 94.9115Z" fill="#CCEAFF"/>
<path d="M36.8679 67.5323C36.7665 67.3856 36.6975 67.219 36.6656 67.0436C36.6336 66.8682 36.6395 66.6879 36.6828 66.5149C36.726 66.342 36.8057 66.1802 36.9164 66.0404C37.0272 65.9007 37.1665 65.7862 37.325 65.7045C37.5179 65.6513 37.7203 65.6422 37.9171 65.6779C38.114 65.7136 38.3003 65.7932 38.4622 65.9108C38.7275 66.0469 39.0015 66.179 39.2686 66.3198C39.1678 64.8802 39.1527 64.0077 39.1261 63.3554C38.2102 63.4134 32.6077 63.6967 32.3626 63.7117C31.5933 63.7586 30.8298 63.8675 30.0645 63.9556C28.3361 64.1377 26.6392 64.5467 25.0176 65.1722C21.9472 66.3939 20.0992 69.0802 20.01 71.2144C20.0378 70.9415 20.4671 70.9415 20.4462 71.2207C20.2348 74.0941 22.1737 76.4345 24.4244 78.2483C25.8547 79.4029 27.3759 80.4578 28.9134 81.4653L34.4314 72.5665C33.041 71.8933 31.6314 71.2597 30.2024 70.6658C29.9452 70.5592 30.0581 70.1357 30.3183 70.2434C32.8229 71.2766 35.2728 72.4379 37.6581 73.7228C38.0468 72.5931 38.9952 70.2869 39.001 69.6676C38.6922 68.8253 37.3986 68.4551 36.8679 67.5323Z" fill="#FFC431"/>
<path d="M66.3749 69.4515L58.4749 59.8216C58.4352 59.7798 58.4131 59.7243 58.4131 59.6667C58.4131 59.609 58.4352 59.5535 58.4749 59.5117C55.8958 62.0126 45.6808 62.8671 42.1024 63.148L42.9778 65.792C43.7112 65.2248 44.4417 64.6519 45.2266 64.1572C46.1993 63.5448 47.4321 62.8028 48.4036 63.3971C48.5713 63.523 48.7048 63.6889 48.7919 63.8797C48.879 64.0704 48.917 64.2799 48.9024 64.4891C48.8502 65.4236 48.1464 66.1419 47.4923 66.7247C46.3835 67.7141 46.3047 67.2461 48.7627 66.8556C49.6317 66.7177 51.0667 66.508 51.3581 67.6545C51.6361 69.1989 49.0947 69.74 47.1117 70.5782C46.4026 74.1902 45.156 81.0667 43.586 84.3427C42.8909 85.7985 42.048 87.0005 40.4514 86.905C38.8075 86.771 37.1985 86.357 35.6941 85.6809C32.2623 84.1568 29.0142 82.2487 26.0121 79.9932C23.6786 78.301 21.4935 76.6332 20.4455 73.9776C20.1712 73.2806 20.0188 72.5417 19.9948 71.7931C19.982 72.684 20.0075 73.5791 20.0075 74.4683C20.0075 85.0228 19.9919 87.3342 20.0214 87.8626C20.0348 88.1122 20.1095 88.1088 20.2694 88.1256C21.1882 88.2223 26.3568 88.3086 54.747 88.1064C54.805 88.1058 54.8604 88.0826 54.9014 88.0417C54.9424 88.0008 54.9658 87.9454 54.9666 87.8875C54.9932 84.1532 55.1033 74.7846 55.1045 73.834C59.279 73.1724 63.3069 72.0572 66.6408 69.4857C66.6471 69.4797 66.6529 69.4733 66.6582 69.4666C66.6175 69.4995 66.566 69.5162 66.5137 69.5134C66.4614 69.5106 66.412 69.4886 66.3749 69.4515Z" fill="#FFC431"/>
<path d="M57.8539 94.9643C57.9796 95.2169 58.3579 94.995 58.2322 94.743L55.1004 88.4552C54.9747 88.2026 54.5964 88.4245 54.7221 88.6765L57.8539 94.9643Z" fill="#CCEAFF"/>
<path d="M37.7352 90.4729C37.7127 90.4366 37.6802 90.4076 37.6417 90.3893C37.6031 90.3711 37.5601 90.3643 37.5178 90.3699C37.4755 90.3754 37.4357 90.3931 37.4031 90.4207C37.3706 90.4483 37.3467 90.4847 37.3343 90.5256C36.9323 91.7775 35.9556 94.6184 35.8959 94.7951C35.8061 95.0633 36.229 95.178 36.3188 94.911C36.7388 93.6649 37.5933 91.1188 37.5933 91.1188C38.1344 92.0775 39.5716 94.6456 39.7617 94.9637C39.7762 94.9885 39.7955 95.0102 39.8184 95.0276C39.8413 95.045 39.8675 95.0577 39.8953 95.065C39.9231 95.0723 39.9521 95.074 39.9806 95.0701C40.0092 95.0662 40.0366 95.0567 40.0614 95.0422C40.0863 95.0276 40.108 95.0084 40.1254 94.9854C40.1428 94.9625 40.1555 94.9364 40.1628 94.9085C40.1701 94.8807 40.1718 94.8517 40.1679 94.8232C40.164 94.7947 40.1545 94.7672 40.1399 94.7424C39.3473 93.3142 38.5457 91.891 37.7352 90.4729Z" fill="#CCEAFF"/>
<path d="M72.432 56.0068C72.0755 52.7856 70.7653 49.7443 68.6694 47.2725C66.6301 44.6651 63.7135 42.8869 60.4617 42.2684C55.7693 41.2546 50.6499 42.4799 46.0039 43.9913C45.9274 44.0162 44.6599 44.4287 44.5602 44.4826C43.1588 43.8818 41.7132 43.3896 40.2363 43.0105C39.972 42.9476 39.6972 42.9422 39.4307 42.9946C39.1641 43.0471 38.9119 43.1562 38.6912 43.3147C38.4697 43.5397 38.3256 43.8296 38.28 44.1421C38.2343 44.4546 38.2895 44.7736 38.4375 45.0526C38.8109 45.6769 39.3816 46.1589 40.0596 46.4227C40.8874 46.8129 41.7467 47.1327 42.6282 47.3785C41.4261 47.8815 40.2655 48.4783 39.157 49.1634C38.775 49.3764 38.4273 49.646 38.1258 49.9628C37.192 50.9853 37.6705 52.4765 38.949 52.4237C40.2627 52.3612 41.5516 52.0438 42.7441 51.4893C42.4179 52.6161 42.0031 54.7804 42.3148 55.9239C42.6323 57.0889 43.8668 57.4881 44.6448 56.7599C45.8289 55.7785 45.2571 53.4578 47.1196 51.2443C47.67 52.6972 47.7123 54.1066 48.8384 54.6396C49.1225 54.8012 49.4558 54.8536 49.7758 54.7869C50.0958 54.7202 50.3804 54.5391 50.5764 54.2775C51.0433 53.6403 50.8365 52.8072 50.6922 52.0924C50.5563 51.413 50.4211 50.7333 50.2867 50.0532C52.0977 49.9386 53.9126 50.2078 55.6123 50.8434C56.5547 51.1902 57.4115 51.7355 58.1248 52.4423C58.7414 53.0952 59.1995 53.8813 59.4635 54.7398C59.7275 55.5982 59.7904 56.5059 59.6472 57.3925C59.4793 58.2005 59.0705 58.9388 58.4747 59.5099C58.4345 59.5514 58.412 59.607 58.412 59.6648C58.412 59.7227 58.4345 59.7782 58.4747 59.8198C58.4747 59.8198 66.0521 69.0557 66.3747 69.4497C66.4165 69.4896 66.472 69.5119 66.5297 69.5119C66.5874 69.5119 66.6429 69.4896 66.6847 69.4497C68.7011 67.8777 70.286 65.82 71.2911 63.469C72.2962 61.1181 72.6888 58.5507 72.432 56.0068ZM45.8932 49.9553L44.7838 50.3846C44.5203 50.4865 44.4073 50.0625 44.668 49.9617L45.7774 49.5324C46.0409 49.4304 46.1533 49.8545 45.8932 49.9553ZM45.983 47.2905L44.6813 47.4446C44.4009 47.4776 44.4044 47.0391 44.6813 47.006L45.983 46.8514C46.2634 46.8166 46.2599 47.2569 45.983 47.2899V47.2905ZM47.3548 51.0039C47.3129 51.0409 47.2585 51.0606 47.2026 51.0589C47.1467 51.0572 47.0936 51.0343 47.054 50.9947C47.0145 50.9552 46.9915 50.902 46.9898 50.8461C46.9881 50.7902 47.0078 50.7358 47.0449 50.6939C47.8385 49.8707 48.8819 49.7091 50.0243 49.6291C50.3058 49.61 50.3029 50.0434 50.0243 50.0677C48.934 50.1615 48.1392 50.2467 47.3548 51.0033V51.0039ZM70.1599 58.3032V56.0068C70.1599 55.9487 70.183 55.893 70.2241 55.8519C70.2651 55.8109 70.3208 55.7878 70.3789 55.7878C70.437 55.7878 70.4927 55.8109 70.5338 55.8519C70.5748 55.893 70.5979 55.9487 70.5979 56.0068C70.6112 56.772 70.613 57.5373 70.5979 58.302C70.5971 58.3309 70.5905 58.3593 70.5786 58.3856C70.5667 58.4119 70.5497 58.4356 70.5286 58.4552C70.5075 58.4749 70.4826 58.4902 70.4556 58.5002C70.4285 58.5102 70.3997 58.5147 70.3708 58.5135C70.3155 58.5112 70.2631 58.4881 70.224 58.4489C70.185 58.4098 70.1621 58.3573 70.1599 58.302V58.3032Z" fill="#FC9070"/>
<path d="M75.4951 61.0514C75.4831 61.1063 75.4927 61.1637 75.5219 61.2117C75.551 61.2598 75.5974 61.2948 75.6516 61.3097C75.7058 61.3245 75.7636 61.318 75.8132 61.2915C75.8627 61.265 75.9002 61.2206 75.9179 61.1672C76.7494 58.1441 76.5632 54.9314 75.3879 52.0246C75.2836 51.7656 74.8601 51.8786 74.965 52.1404C75.8444 54.3341 76.16 56.7132 75.8832 59.0603C75.7979 59.7318 75.6683 60.397 75.4951 61.0514Z" fill="black"/>
<path d="M77.6331 60.9311C77.567 61.2051 77.9899 61.3221 78.056 61.0469C78.7929 57.9923 78.5574 54.7838 77.3822 51.8695C77.278 51.6111 76.8539 51.7241 76.9599 51.9854C78.1127 54.8239 78.3481 57.952 77.6331 60.9311Z" fill="black"/>
<path d="M19.648 36.1069C19.4359 35.9227 19.1266 36.2315 19.338 36.4169L26.2451 42.4261C26.4572 42.6103 26.7665 42.3015 26.5551 42.1161L19.648 36.1069Z" fill="black"/>
<path d="M70.5993 58.302C70.6129 57.5373 70.6129 56.7722 70.5993 56.0068C70.5993 55.9487 70.5763 55.893 70.5352 55.8519C70.4941 55.8109 70.4384 55.7878 70.3804 55.7878C70.3223 55.7878 70.2666 55.8109 70.2255 55.8519C70.1844 55.893 70.1614 55.9487 70.1614 56.0068V58.302C70.1636 58.3602 70.1889 58.4151 70.2315 58.4547C70.2742 58.4944 70.3308 58.5155 70.389 58.5134C70.4445 58.5118 70.4972 58.489 70.5364 58.4497C70.5755 58.4103 70.598 58.3575 70.5993 58.302Z" fill="#FF4848"/>
<path d="M16.2986 43.9229C16.2424 43.9258 16.1895 43.9502 16.1507 43.991C16.1119 44.0318 16.0903 44.0859 16.0903 44.1422C16.0903 44.1985 16.1119 44.2526 16.1507 44.2934C16.1895 44.3342 16.2424 44.3586 16.2986 44.3614H26.1956C26.2518 44.3586 26.3047 44.3342 26.3435 44.2934C26.3822 44.2526 26.4038 44.1985 26.4038 44.1422C26.4038 44.0859 26.3822 44.0318 26.3435 43.991C26.3047 43.9502 26.2518 43.9258 26.1956 43.9229H16.2986Z" fill="black"/>
<path d="M26.3056 46.6383C26.5374 46.4819 26.3195 46.1025 26.0843 46.26L19.3823 50.7601C19.1506 50.9165 19.3684 51.2965 19.6036 51.1384L26.3056 46.6383Z" fill="black"/>
<path d="M20.4466 73.9778C21.4928 76.6304 23.6733 78.2977 26.0132 79.9933C26.9493 80.6715 27.9017 81.3269 28.8703 81.9595C28.8209 81.9294 28.7851 81.8813 28.7704 81.8253C28.7557 81.7694 28.7633 81.7099 28.7915 81.6594L28.9132 81.463C27.3757 80.4556 25.8544 79.4007 24.4241 78.2461C22.177 76.4323 20.2334 74.1023 20.446 71.2185C20.4669 70.9393 20.0405 70.9393 20.0098 71.2121C19.9942 71.4048 19.9896 71.5982 19.9959 71.7914C20.0191 72.5407 20.1716 73.2804 20.4466 73.9778Z" fill="#FF4848"/>
<path d="M30.2029 70.6632C31.6319 71.2549 33.0416 71.8885 34.4319 72.564L34.5582 72.36C34.5885 72.311 34.6365 72.2755 34.6923 72.261C34.7481 72.2464 34.8073 72.2539 34.8577 72.2818C33.3666 71.5546 31.854 70.8743 30.32 70.2409C30.0587 70.1332 29.9452 70.5572 30.2029 70.6632Z" fill="#FF4848"/>
<path d="M45.7769 49.5324L44.6676 49.9617C44.4074 50.0625 44.5204 50.4866 44.7834 50.3846L45.8928 49.9553C46.1535 49.8545 46.0411 49.4305 45.7769 49.5324Z" fill="#FF4848"/>
<path d="M44.6817 47.4442L45.9834 47.2901C46.2603 47.2571 46.2638 46.8185 45.9834 46.8516L44.6817 47.0057C44.4048 47.0387 44.4013 47.4772 44.6817 47.4442Z" fill="#FF4848"/>
<path d="M47.0452 50.6933C47.0081 50.7351 46.9884 50.7896 46.9901 50.8455C46.9918 50.9014 47.0148 50.9545 47.0543 50.9941C47.0938 51.0336 47.147 51.0566 47.2029 51.0583C47.2588 51.06 47.3132 51.0403 47.3551 51.0032C48.1279 50.2582 48.881 50.1661 50.0246 50.067C50.3032 50.0427 50.3061 49.6094 50.0246 49.6285C48.8798 49.7061 47.8371 49.8701 47.0452 50.6933Z" fill="#FF4848"/>
<path d="M51.3597 67.6544C51.07 66.5086 49.6328 66.7177 48.7644 66.8556C46.3174 67.2449 46.377 67.7211 47.494 66.7246C48.148 66.1419 48.8519 65.4235 48.904 64.4891C48.9186 64.2799 48.8806 64.0704 48.7935 63.8796C48.7064 63.6889 48.5729 63.523 48.4052 63.3971C48.0891 63.2074 47.7159 63.1357 47.352 63.1949C46.0196 63.3965 44.0546 64.9606 42.9794 65.792L41.6945 61.9106C41.5943 61.4983 41.4238 61.1063 41.1905 60.752C41.0839 60.5966 40.9436 60.4673 40.7801 60.3736C40.6166 60.2799 40.4341 60.2243 40.2462 60.2109C39.4097 60.2109 39.0482 61.0891 39.109 61.9065C39.105 63.141 39.164 64.8181 39.2689 66.3162C39.0018 66.1755 38.7278 66.0434 38.4625 65.9072C38.3006 65.7897 38.1143 65.7101 37.9174 65.6744C37.7206 65.6387 37.5182 65.6478 37.3253 65.701C37.1668 65.7826 37.0275 65.8971 36.9167 66.0369C36.806 66.1766 36.7263 66.3384 36.6831 66.5114C36.6398 66.6844 36.6339 66.8646 36.6659 67.04C36.6978 67.2155 36.7668 67.3821 36.8682 67.5287C37.3861 68.429 38.6948 68.8275 39.0024 69.6641C38.9966 70.2787 38.0454 72.596 37.6596 73.7192C36.7327 73.2222 35.789 72.7651 34.8575 72.2808C34.807 72.2533 34.7479 72.246 34.6922 72.2606C34.6366 72.2751 34.5885 72.3103 34.558 72.359L28.7921 81.6581C28.7643 81.7087 28.7569 81.768 28.7716 81.8239C28.7863 81.8797 28.8218 81.9278 28.8709 81.9582C31.0421 83.38 33.3245 84.6246 35.6957 85.6797C37.2001 86.3559 38.8091 86.7699 40.453 86.9038C42.0473 86.9993 42.8861 85.8031 43.5877 84.3415C44.3546 82.6145 44.9424 80.8135 45.3418 78.9666C45.997 76.3059 46.5462 73.4707 47.1133 70.5771C49.1178 69.7318 51.6366 69.1937 51.3597 67.6544ZM44.0662 69.7521C43.8344 69.9161 43.6184 69.5372 43.8449 69.3732C44.0808 69.2013 44.2732 68.9765 44.4068 68.7169C44.5372 68.466 44.9172 68.6891 44.7851 68.9382C44.6119 69.2617 44.3658 69.5403 44.0662 69.7521ZM41.6331 68.5813C41.7196 68.2453 41.8121 67.9109 41.9106 67.578C41.9265 67.5226 41.9636 67.4758 42.0138 67.4476C42.0641 67.4195 42.1234 67.4122 42.1789 67.4274C42.2344 67.4427 42.2817 67.4792 42.3106 67.529C42.3394 67.5789 42.3474 67.6381 42.3329 67.6938C42.2464 68.0298 42.1539 68.3643 42.0554 68.6972C42.0394 68.7525 42.0023 68.7994 41.9521 68.8275C41.9019 68.8557 41.8426 68.863 41.787 68.8477C41.7315 68.8325 41.6842 68.796 41.6554 68.7461C41.6266 68.6963 41.6186 68.6371 41.6331 68.5813ZM41.2751 85.1224C40.7589 85.2794 40.2404 85.4277 39.7231 85.58C39.6682 85.5919 39.6108 85.5823 39.5627 85.5532C39.5147 85.5241 39.4796 85.4777 39.4648 85.4235C39.4499 85.3693 39.4564 85.3115 39.4829 85.2619C39.5094 85.2124 39.5539 85.1749 39.6072 85.1571C40.1234 85.0001 40.6419 84.8524 41.1592 84.6995C41.2141 84.6876 41.2715 84.6972 41.3195 84.7263C41.3676 84.7554 41.4026 84.8018 41.4175 84.856C41.4323 84.9102 41.4258 84.968 41.3993 85.0176C41.3728 85.0671 41.3284 85.1046 41.2751 85.1224Z" fill="#FC9070"/>
<path d="M112.903 37.6474C110.736 26.082 98.2289 18.7717 85.2292 22.6606C77.2347 25.0514 70.6456 31.2576 68.8585 39.6663C68.6366 40.7095 68.6348 41.7876 68.8532 42.8316C68.8661 42.8777 68.8936 42.9184 68.9317 42.9475C68.9697 42.9765 69.0162 42.9924 69.0641 42.9927H81.342C81.3899 42.9922 81.4363 42.9762 81.4744 42.9472C81.5125 42.9182 81.5402 42.8776 81.5535 42.8316C83.3093 35.2108 91.4475 32.7783 97.2 36.0786C99.4095 37.3461 100.81 39.9293 99.8759 42.4035C99.0249 44.6593 96.3745 46.6829 94.3608 48.2667C91.9026 50.1762 89.7555 52.4555 87.996 55.0232C85.5924 58.579 84.6829 62.5177 84.9158 65.3795C84.9172 65.4373 84.9408 65.4923 84.9817 65.5331C85.0226 65.574 85.0776 65.5976 85.1353 65.5991H97.7736C97.8317 65.5988 97.8873 65.5755 97.9283 65.5344C97.9693 65.4933 97.9924 65.4376 97.9925 65.3795C97.98 64.9455 98.0096 64.5113 98.0812 64.083C98.3989 62.8204 99.0595 61.6702 99.99 60.7595C103.32 57.3022 109.269 53.5946 111.781 47.8015C113.159 44.6045 113.55 41.0683 112.903 37.6474Z" fill="#CCEAFF"/>
<path d="M103.851 69.0296C103.85 68.9717 103.827 68.9165 103.786 68.8756C103.745 68.8347 103.69 68.8114 103.632 68.8106H78.2475C78.1897 68.8114 78.1344 68.8347 78.0935 68.8756C78.0526 68.9165 78.0293 68.9718 78.0286 69.0296V94.4138C78.029 94.4718 78.0522 94.5272 78.0932 94.5682C78.1342 94.6091 78.1896 94.6324 78.2475 94.6328C105.444 94.8269 103.666 94.6682 103.786 94.5679C103.827 94.527 103.851 94.4717 103.851 94.4138C103.843 93.3172 103.861 70.3504 103.851 69.0296Z" fill="#CCEAFF"/>
<path d="M3.21855 73.791C3.21275 73.8078 3.17973 73.7551 3.14324 74.1716C3.05171 75.2213 2.94048 79.2475 3.2087 94.853C3.21159 94.9092 3.23595 94.9621 3.27676 95.0009C3.31756 95.0396 3.37169 95.0612 3.42797 95.0612C3.48425 95.0612 3.53838 95.0396 3.57918 95.0009C3.61998 94.9621 3.64435 94.9092 3.64724 94.853V74.2788C3.27069 73.9005 3.23419 73.8877 3.21855 73.791Z" fill="black"/>
<path d="M8.63248 68.9023C8.63188 68.8731 8.62549 68.8444 8.61369 68.8177C8.60188 68.791 8.5849 68.767 8.56371 68.7469C8.54253 68.7269 8.51758 68.7112 8.4903 68.7009C8.46302 68.6906 8.43396 68.6858 8.40481 68.6868C8.25361 68.6909 8.51603 68.4974 3.2727 73.593C3.23443 73.6355 3.21326 73.6907 3.21326 73.7479C3.21326 73.8052 3.23443 73.8604 3.2727 73.9029C8.30343 78.9603 8.22812 78.9 8.28721 78.9394C8.31761 78.9656 8.35469 78.9828 8.39431 78.9892C8.43393 78.9955 8.47453 78.9907 8.5116 78.9754C8.54866 78.96 8.58072 78.9346 8.60421 78.9021C8.6277 78.8696 8.6417 78.8312 8.64464 78.7911C8.65275 78.7535 8.63306 68.9394 8.63248 68.9023Z" fill="#FF4848"/>
<path d="M21.9226 58.2008C21.9716 58.1703 22.007 58.1222 22.0217 58.0664C22.0363 58.0106 22.0291 57.9513 22.0014 57.9007C21.972 57.8505 21.9239 57.814 21.8677 57.7993C21.8114 57.7845 21.7516 57.7926 21.7013 57.8219C17.399 61.1364 13.2208 64.5112 9.16678 67.9465C8.9507 68.129 9.26236 68.4378 9.47671 68.2565C13.55 64.8069 17.6987 61.455 21.9226 58.2008Z" fill="#FFF0B3"/>
<path d="M16.4246 87.1209C16.6152 87.3295 16.9245 87.0189 16.7345 86.811C13.7876 83.5755 10.5857 80.303 9.80944 79.5522C9.76757 79.5151 9.71313 79.4954 9.65723 79.4971C9.60133 79.4988 9.54819 79.5218 9.50864 79.5614C9.4691 79.6009 9.44613 79.654 9.44444 79.7099C9.44274 79.7658 9.46244 79.8203 9.49951 79.8622C12.2269 82.684 13.5124 83.9231 16.4246 87.1209Z" fill="#FFF0B3"/>
<path d="M47.355 37.8769C51.4303 34.4257 55.5789 31.0738 59.8009 27.8212C59.8501 27.7909 59.8857 27.7428 59.9004 27.6869C59.9151 27.631 59.9077 27.5717 59.8797 27.5211C59.8652 27.4963 59.846 27.4745 59.8231 27.4571C59.8002 27.4397 59.7741 27.427 59.7463 27.4197C59.7185 27.4124 59.6895 27.4106 59.661 27.4145C59.6325 27.4184 59.6051 27.4278 59.5802 27.4423C55.2686 30.7637 51.0902 34.1386 47.0451 37.5669C46.8296 37.7494 47.1419 38.0582 47.355 37.8769Z" fill="#FFF0B3"/>
<path d="M41.6309 68.5813C41.6163 68.6371 41.6244 68.6963 41.6532 68.7461C41.682 68.796 41.7293 68.8325 41.7848 68.8477C41.8404 68.863 41.8997 68.8557 41.9499 68.8275C42.0001 68.7994 42.0372 68.7525 42.0532 68.6972C42.1517 68.3647 42.2442 68.0302 42.3307 67.6938C42.3452 67.6381 42.3372 67.5789 42.3083 67.529C42.2795 67.4792 42.2322 67.4427 42.1767 67.4275C42.1212 67.4122 42.0619 67.4195 42.0116 67.4476C41.9614 67.4758 41.9243 67.5226 41.9083 67.578C41.8099 67.9109 41.7174 68.2453 41.6309 68.5813Z" fill="#FF4848"/>
<path d="M44.0664 69.7522C44.366 69.5404 44.6121 69.2617 44.7853 68.9382C44.9174 68.6891 44.5374 68.4661 44.407 68.7169C44.2734 68.9765 44.081 69.2013 43.8451 69.3733C43.6186 69.5372 43.8364 69.9161 44.0664 69.7522Z" fill="#FF4848"/>
<path d="M39.7206 85.5801C40.2379 85.4277 40.7564 85.2794 41.2726 85.1224C41.3259 85.1047 41.3704 85.0672 41.3969 85.0176C41.4234 84.9681 41.4299 84.9103 41.415 84.8561C41.4002 84.8019 41.3651 84.7554 41.3171 84.7263C41.269 84.6972 41.2116 84.6876 41.1567 84.6995C40.6394 84.8524 40.1209 85.0002 39.6048 85.1572C39.5514 85.1749 39.507 85.2124 39.4805 85.262C39.454 85.3115 39.4475 85.3693 39.4623 85.4235C39.4772 85.4777 39.5122 85.5241 39.5603 85.5533C39.6083 85.5824 39.6657 85.592 39.7206 85.5801Z" fill="#FF4848"/>
<path d="M43.5606 58.6437C43.5514 58.3619 43.45 58.0908 43.2718 57.8723C43.0937 57.6537 42.8486 57.4997 42.5744 57.4339C42.3002 57.3681 42.012 57.3941 41.7541 57.508C41.4961 57.6219 41.2827 57.8174 41.1466 58.0644C41.0498 58.2381 40.9945 58.432 40.985 58.6307C40.9756 58.8293 41.0123 59.0275 41.0922 59.2097C41.1721 59.3919 41.2931 59.5531 41.4457 59.6807C41.5983 59.8083 41.7783 59.8988 41.9718 59.9452C42.1652 59.9917 42.3667 59.9927 42.5606 59.9482C42.7545 59.9038 42.9355 59.815 43.0894 59.689C43.2432 59.5629 43.3659 59.403 43.4476 59.2216C43.5294 59.0403 43.568 58.8425 43.5606 58.6437ZM41.4988 58.5423V58.5359C41.5524 58.349 41.6671 58.1853 41.8247 58.0713C41.9822 57.9572 42.1735 57.8993 42.3678 57.9068C42.5731 57.9457 42.7566 58.0596 42.8825 58.2263C43.0085 58.3931 43.0678 58.6007 43.0491 58.8088C43.007 59.0062 42.8944 59.1816 42.7325 59.3022C42.5706 59.4227 42.3703 59.4803 42.1691 59.464C42.0646 59.4475 41.9643 59.4106 41.8741 59.3553C41.7838 59.3001 41.7053 59.2276 41.6431 59.142C41.5808 59.0564 41.5361 58.9594 41.5113 58.8565C41.4866 58.7536 41.4823 58.6468 41.4988 58.5423Z" fill="black"/>
<path d="M18.1098 94.9213L20.4317 88.6335C20.5476 88.3241 20.0517 88.1909 19.9387 88.4979L17.6168 94.7834C17.5027 95.0945 17.9969 95.2278 18.1098 94.9213Z" fill="black"/>
<path d="M54.6904 88.6947L57.8227 94.982C57.9693 95.2768 58.4101 95.0179 58.2642 94.7242L55.1324 88.4363C54.9858 88.142 54.5444 88.4004 54.6904 88.6947Z" fill="black"/>
<path d="M39.7333 94.9822C39.7502 95.0112 39.7727 95.0365 39.7994 95.0568C39.8262 95.0772 39.8566 95.092 39.8891 95.1005C39.9216 95.109 39.9554 95.1111 39.9887 95.1065C40.0219 95.102 40.0539 95.0909 40.0829 95.074C40.1119 95.0571 40.1373 95.0346 40.1576 95.0079C40.1779 94.9812 40.1927 94.9507 40.2012 94.9182C40.2098 94.8858 40.2118 94.8519 40.2073 94.8187C40.2027 94.7854 40.1917 94.7534 40.1748 94.7244C38.5388 91.7589 38.0064 90.8129 37.8453 90.5418C37.6907 90.2817 37.4143 90.2405 37.2991 90.5308C37.1838 90.821 36.8872 91.7404 35.8618 94.7852C35.7564 95.0981 36.2499 95.2319 36.3548 94.9214L37.6055 91.2086C38.1327 92.1442 39.5439 94.6676 39.7333 94.9822Z" fill="black"/>
<path d="M71.3328 51.5668C70.0563 48.5349 67.9271 45.9388 65.2037 44.0937C58.8724 40.3172 51.8471 41.9566 44.8542 44.3353C44.7522 44.3606 44.653 44.3963 44.5582 44.4418C44.4922 44.4152 43.9673 44.2304 43.2327 43.9315C42.2677 43.5268 41.2692 43.2067 40.2487 42.975C39.9783 42.9089 39.6968 42.9027 39.4238 42.957C39.1507 43.0112 38.8929 43.1246 38.6684 43.289C38.4408 43.52 38.293 43.8176 38.2464 44.1384C38.1998 44.4593 38.2569 44.7866 38.4094 45.0727C38.7882 45.7011 39.3636 46.1872 40.0465 46.4555C40.8446 46.8326 41.6725 47.1426 42.5219 47.3824C41.3525 47.8799 40.2225 48.4653 39.1416 49.1337C38.7575 49.348 38.4081 49.6193 38.1053 49.9383C37.1442 50.9904 37.6482 52.5145 38.954 52.4618C40.2461 52.4035 41.5149 52.0969 42.6911 51.5587C42.3158 52.8258 42.1487 54.1454 42.1964 55.4661C40.9439 55.838 39.5252 56.6543 38.9771 57.8164C38.9383 57.8998 38.8995 58.0887 38.8172 58.128C38.735 58.1674 38.5166 58.1031 38.4262 58.0979C36.2967 57.9745 34.8275 59.6093 35.1375 61.4C34.5909 61.5498 34.109 61.8756 33.7662 62.3269C33.4557 62.7175 33.22 63.1622 33.0711 63.6384C32.0647 63.6776 31.0612 63.7716 30.065 63.92C28.3295 64.0948 26.6257 64.5041 25.0001 65.1365C21.8892 66.4012 20.0632 69.0677 19.974 71.21C19.9555 71.2767 20.0563 75.8405 19.974 87.8855C19.974 88.1711 20.2978 88.1624 20.3569 88.1676C21.5474 88.2643 27.3034 88.3344 54.7483 88.141C54.8158 88.1402 54.8803 88.113 54.9281 88.0653C54.9758 88.0175 55.003 87.953 55.0037 87.8855C55.0037 84.1512 55.1399 74.8035 55.1416 73.8627C59.3248 73.1976 63.3991 72.0628 66.7116 69.475C69.3473 67.4162 71.2292 64.5445 72.0649 61.306C72.9005 58.0676 72.6432 54.6439 71.3328 51.5668ZM35.4596 61.8785C35.4935 61.8784 35.527 61.8715 35.5582 61.8583C35.5894 61.8451 35.6178 61.8259 35.6415 61.8017C35.6653 61.7775 35.684 61.7489 35.6966 61.7174C35.7092 61.6859 35.7155 61.6523 35.715 61.6184C35.6099 61.2831 35.5835 60.9281 35.6379 60.581C35.6923 60.2339 35.8259 59.904 36.0284 59.6169C36.3085 59.2656 36.6715 58.9895 37.0848 58.8134C37.4981 58.6373 37.9487 58.5668 38.3961 58.6083C38.5807 58.6408 38.7693 58.6447 38.9551 58.6199C39.3154 58.5243 39.3711 58.1089 39.5472 57.8332C40.2294 56.924 41.1966 56.2697 42.2943 55.9748C42.6262 57.0691 43.7755 57.5522 44.6376 56.8258C45.441 58.7065 45.8388 60.7356 45.8049 62.7805C44.3184 62.9369 43.0207 63.0406 42.1297 63.1095L41.73 61.9028C41.6283 61.4883 41.4567 61.0941 41.2225 60.7373C41.1129 60.5767 40.9683 60.4429 40.7997 60.3461C40.631 60.2493 40.4427 60.1919 40.2487 60.1782C39.3879 60.1782 39.0142 61.0756 39.075 61.9098C39.075 62.3802 39.0814 62.8506 39.0918 63.3204C38.1881 63.3783 34.5384 63.5631 33.6185 63.6101C33.8954 62.8239 34.6456 61.8721 35.4596 61.8785ZM48.8225 54.6725C49.1146 54.8381 49.4571 54.8913 49.7858 54.8223C50.1144 54.7533 50.4065 54.5668 50.6074 54.2977C51.0795 53.6488 50.8733 52.8094 50.7284 52.0847C50.5952 51.4196 50.4631 50.7544 50.3322 50.089C52.1254 49.9807 53.9214 50.2503 55.6039 50.8803C56.5727 51.1968 57.4436 51.7575 58.1328 52.5083C58.8219 53.2592 59.3061 54.1749 59.5386 55.1672C60.2303 58.1089 58.4958 59.4002 58.4188 59.5277C58.4281 59.5131 58.4387 59.4996 58.4506 59.4871C56.5899 61.2917 50.7684 62.2354 46.3297 62.7249C46.3538 60.5527 45.9032 58.4014 45.0095 56.4214C45.7417 55.3891 45.4729 53.3076 47.1095 51.3159C47.6436 52.752 47.6928 54.1378 48.8225 54.6725ZM47.5017 50.922C47.7878 50.6618 48.127 50.4667 48.4958 50.3502C48.9279 50.2285 49.3715 50.1522 49.8195 50.1226L50.1503 51.7881C50.3492 52.3875 50.4156 53.023 50.3449 53.6506C50.3199 53.7871 50.2619 53.9154 50.176 54.0243C50.09 54.1332 49.9788 54.2195 49.8519 54.2756C49.7249 54.3317 49.5862 54.3559 49.4478 54.3461C49.3094 54.3363 49.1755 54.2928 49.0577 54.2194C48.7993 54.0553 48.5787 53.8381 48.4107 53.5822C48.2427 53.3263 48.1311 53.0376 48.0833 52.7353C47.9246 52.1201 47.7304 51.5147 47.5017 50.922ZM45.5732 68.2092C46.9799 67.6619 48.4594 67.3242 49.9643 67.207C50.1401 67.1527 50.3298 67.1666 50.4957 67.246C50.6617 67.3253 50.7916 67.4643 50.8596 67.6353C50.9276 67.8062 50.9286 67.9964 50.8625 68.1681C50.7965 68.3398 50.6681 68.4802 50.5031 68.5614C50.2112 68.782 49.8918 68.9637 49.553 69.1019C46.3668 70.4465 46.7515 69.9628 46.5985 70.7338C45.828 74.6575 44.7725 80.4083 43.3254 83.7788C42.9338 84.7416 42.1234 86.151 41.076 86.3967C40.3153 86.5733 38.6353 86.1956 37.7739 85.9303C34.802 85.0324 31.9373 83.3738 29.3299 81.6903L34.8397 72.8037C35.7863 73.2695 36.7238 73.7522 37.6522 74.252C37.6862 74.2711 37.724 74.2823 37.7629 74.2847C37.8018 74.2871 37.8407 74.2808 37.8768 74.2661C37.9129 74.2514 37.9452 74.2287 37.9713 74.1998C37.9974 74.1709 38.0167 74.1364 38.0276 74.0991C38.5571 72.4886 39.1162 71.4394 39.4759 69.8122C39.5958 69.1836 38.6301 68.4658 38.1012 68.1032C37.6059 67.7637 36.8267 67.0853 37.2247 66.3954C37.2629 66.3265 37.315 66.2662 37.3776 66.2183C37.4402 66.1705 37.512 66.1361 37.5885 66.1173C37.7922 66.1131 37.9919 66.174 38.1586 66.2911C38.5641 66.4985 38.9916 66.6926 39.3821 66.9255C39.421 66.9477 39.465 66.9593 39.5098 66.9593C39.5547 66.9592 39.5987 66.9474 39.6375 66.9251C39.6764 66.9028 39.7088 66.8708 39.7314 66.8321C39.7541 66.7935 39.7663 66.7495 39.7667 66.7047C39.6619 65.3179 39.535 62.5436 39.5964 61.5251C39.5932 61.3634 39.6332 61.2038 39.7122 61.0627C39.7912 60.9215 39.9064 60.804 40.046 60.7222C40.3594 60.5959 40.6884 60.8502 40.8512 61.0988C41.0829 61.5106 40.9311 61.1138 42.6204 66.2233C42.6668 66.3618 42.8573 66.4829 42.9964 66.3757C44.0333 65.5791 45.5778 64.3255 46.9311 63.7879C47.5167 63.5776 48.3764 63.5562 48.4268 64.3672C48.512 65.7205 46.3286 66.9845 45.3235 67.7851C45.1277 67.9387 45.3408 68.2996 45.5732 68.2092ZM20.4838 71.553C20.4838 69.4281 21.9269 67.5743 23.6335 66.4411C25.0536 65.5621 26.6343 64.9741 28.2836 64.7113C31.6709 64.059 32.9714 64.212 39.1075 63.8285C39.1322 64.6395 39.1725 65.4486 39.2285 66.2558C38.98 66.1272 38.7269 66.0049 38.4812 65.8786C38.315 65.7588 38.124 65.6778 37.9223 65.6415C37.7205 65.6052 37.5133 65.6146 37.3157 65.6689C37.1516 65.752 37.0073 65.8693 36.8923 66.0128C36.7773 66.1564 36.6944 66.3228 36.649 66.501C36.6037 66.6793 36.597 66.8651 36.6295 67.0462C36.6619 67.2272 36.7327 67.3991 36.8372 67.5505C37.3719 68.4809 39.1179 69.1118 38.9482 69.8388C38.6683 71.0554 38.0792 72.3988 37.6395 73.668C35.2634 72.3903 32.8236 71.2347 30.3298 70.2055C30.2644 70.1879 30.1947 70.1967 30.1358 70.2301C30.0769 70.2635 30.0336 70.3188 30.0152 70.3839C29.9986 70.4493 30.0079 70.5185 30.0412 70.5771C30.0744 70.6357 30.1291 70.6792 30.1936 70.6985C31.6071 71.2836 33.0023 71.9106 34.3791 72.5795L28.9029 81.4117C27.3782 80.4118 25.8696 79.3656 24.4509 78.2203C19.919 74.5613 20.5435 71.7071 20.4838 71.553ZM54.8201 73.4027C54.7662 73.4176 54.7187 73.4498 54.6848 73.4942C54.6509 73.5387 54.6325 73.593 54.6324 73.6489C54.6324 77.3832 54.4963 86.7043 54.4951 87.6312H20.4896V74.1651C21.5804 76.7506 23.7077 78.3628 26.0006 80.0242C29.6363 82.6601 35.945 86.7361 40.4584 86.9418C42.0399 87.0576 42.9413 85.7872 43.6244 84.361C44.3926 82.6311 44.9817 80.8272 45.3826 78.9774C46.0407 76.3056 46.5829 73.4977 47.1506 70.6041C49.2228 69.7311 51.6802 69.2027 51.4004 67.6444C51.3359 67.4209 51.2111 67.2195 51.0397 67.0621C50.8684 66.9048 50.6571 66.7976 50.4289 66.7522C49.8739 66.659 49.3055 66.6822 48.7599 66.8206C46.5516 67.1722 46.6518 67.5389 47.5254 66.7505C48.1841 66.1567 48.8943 65.4343 48.9459 64.4912C48.9606 64.2756 48.9211 64.0597 48.8308 63.8634C48.7405 63.667 48.6024 63.4965 48.4292 63.3673C47.4443 62.7643 46.2017 63.5064 45.2151 64.1274C44.4435 64.614 43.7246 65.1765 43.0033 65.7338L42.3 63.6101C46.0841 63.3117 55.7296 62.4723 58.6065 60.0328L66.1676 69.2496C62.8493 71.7106 58.8683 72.7724 54.8201 73.4027ZM58.9685 59.6731C59.4638 59.1524 59.8284 58.5218 60.0327 57.8329C60.2369 57.1439 60.2748 56.4164 60.1434 55.71C59.6869 52.0899 56.8297 50.2865 53.2664 49.735C51.6237 49.4523 49.9412 49.4978 48.3162 49.8688C47.0741 50.2454 46.1148 51.5818 45.6728 52.741C44.7859 55.1162 45.1271 55.5009 44.4394 56.316C44.3187 56.4614 44.1563 56.5664 43.9742 56.6169C43.7921 56.6674 43.5988 56.6611 43.4204 56.5987C42.5978 56.243 42.6471 55.1423 42.6992 54.4066C42.7803 53.2995 42.9958 52.2064 43.3411 51.1514C43.3532 51.1026 43.3508 51.0514 43.3343 51.0039C43.3177 50.9564 43.2877 50.9148 43.2479 50.884C43.2081 50.8533 43.1602 50.8349 43.1101 50.8309C43.06 50.827 43.0098 50.8377 42.9657 50.8618C41.8833 51.4144 40.7116 51.7708 39.5049 51.9144C39.1407 52.008 38.7553 51.9728 38.414 51.8147C38.3141 51.7054 38.2374 51.577 38.1886 51.4372C38.1397 51.2975 38.1197 51.1492 38.1298 51.0015C38.1399 50.8538 38.1798 50.7096 38.2472 50.5778C38.3145 50.4459 38.408 50.3291 38.5218 50.2344C38.7933 49.972 39.0962 49.7444 39.4238 49.5566C40.6726 48.7769 41.9935 48.1193 43.3683 47.5927C43.4208 47.5762 43.4666 47.5434 43.4991 47.4991C43.5317 47.4548 43.5492 47.4012 43.5492 47.3462C43.5492 47.2912 43.5317 47.2377 43.4991 47.1933C43.4666 47.149 43.4208 47.1162 43.3683 47.0997C42.661 46.9051 41.9652 46.6699 41.2735 46.4254C40.5981 46.2037 39.9615 45.8779 39.3867 45.4597C39.1284 45.3001 38.9329 45.0565 38.833 44.7698C38.7331 44.483 38.7349 44.1707 38.8381 43.8851C38.9229 43.749 39.041 43.6367 39.1813 43.5589C39.3216 43.4812 39.4794 43.4405 39.6399 43.4408C39.787 43.4278 39.9352 43.4342 40.0807 43.4599C42.066 43.8747 43.6232 44.6973 44.4765 44.9505C44.6455 44.9548 44.8126 44.9148 44.9614 44.8346C48.1526 43.6587 51.4705 42.8606 54.8473 42.4565C57.9951 42.076 61.1857 42.6195 64.03 44.0207C67.1409 45.5935 69.563 48.7027 70.8913 51.8199C72.1286 54.7549 72.3759 58.0132 71.5955 61.1013C70.8152 64.1893 69.0498 66.939 66.5668 68.9339L58.9685 59.6731Z" fill="black"/>
<path d="M75.6499 61.3497C75.7133 61.3653 75.7801 61.3559 75.8367 61.3236C75.8933 61.2912 75.9353 61.2384 75.9541 61.1759C76.7856 58.1462 76.5994 54.9272 75.424 52.0136C75.4045 51.9492 75.3609 51.8947 75.3024 51.8615C75.2438 51.8283 75.1748 51.8189 75.1095 51.8351C75.077 51.844 75.0466 51.8592 75.0201 51.8798C74.9935 51.9004 74.9713 51.926 74.9546 51.9553C74.938 51.9845 74.9273 52.0167 74.9232 52.0501C74.919 52.0834 74.9215 52.1173 74.9304 52.1497C76.0661 54.9773 76.2521 58.0973 75.4605 61.0398C75.4524 61.0726 75.4509 61.1067 75.4561 61.1401C75.4612 61.1735 75.4729 61.2055 75.4906 61.2343C75.5082 61.2631 75.5313 61.2882 75.5587 61.308C75.586 61.3278 75.6171 61.342 75.6499 61.3497Z" fill="black"/>
<path d="M77.1033 51.6826C77.038 51.7008 76.9826 51.7441 76.9491 51.803C76.9157 51.862 76.907 51.9318 76.9249 51.9972C78.0741 54.8295 78.3097 57.95 77.5987 60.9226C77.5216 61.2424 78.0146 61.3786 78.0922 61.0588C78.8295 57.9974 78.5938 54.7822 77.4179 51.8611C77.3985 51.7966 77.355 51.7421 77.2964 51.7088C77.2378 51.6756 77.1687 51.6662 77.1033 51.6826Z" fill="black"/>
<path d="M26.5818 42.0898L19.6747 36.0806C19.4273 35.8657 19.0641 36.226 19.3132 36.4427L26.2203 42.4519C26.4677 42.6668 26.8309 42.3065 26.5818 42.0898Z" fill="black"/>
<path d="M70.39 58.5493C70.4547 58.5468 70.5161 58.52 70.5618 58.4741C70.6075 58.4282 70.6341 58.3667 70.6362 58.3019V56.0067C70.6337 55.9388 70.6043 55.8747 70.5546 55.8285C70.5048 55.7822 70.4388 55.7576 70.3709 55.7599C70.306 55.7617 70.2443 55.7882 70.1983 55.8341C70.1524 55.8801 70.1259 55.9418 70.1241 56.0067C70.1114 56.7718 70.1114 57.5369 70.1241 58.3019C70.125 58.3357 70.1326 58.369 70.1465 58.3999C70.1605 58.4307 70.1804 58.4584 70.2051 58.4815C70.2299 58.5045 70.259 58.5223 70.2907 58.534C70.3225 58.5456 70.3562 58.5508 70.39 58.5493Z" fill="black"/>
<path d="M26.1961 43.8862H16.2992C16.2334 43.8894 16.1714 43.9177 16.126 43.9653C16.0806 44.0129 16.0553 44.0762 16.0553 44.142C16.0553 44.2078 16.0806 44.2711 16.126 44.3187C16.1714 44.3663 16.2334 44.3946 16.2992 44.3978H26.1961C26.2618 44.3946 26.3238 44.3663 26.3692 44.3187C26.4147 44.2711 26.44 44.2078 26.44 44.142C26.44 44.0762 26.4147 44.0129 26.3692 43.9653C26.3238 43.9177 26.2618 43.8894 26.1961 43.8862Z" fill="black"/>
<path d="M26.0664 46.2283L19.3644 50.7283C19.0927 50.9108 19.3482 51.354 19.6228 51.1698L26.3248 46.6697C26.5965 46.4872 26.3404 46.044 26.0664 46.2283Z" fill="black"/>
<path d="M45.7683 49.4968L44.6589 49.9261C44.3553 50.042 44.4851 50.5384 44.795 50.4197L45.9044 49.9898C46.208 49.8722 46.0759 49.3775 45.7683 49.4968Z" fill="black"/>
<path d="M45.9845 46.8166L44.6828 46.9707C44.6154 46.9722 44.5512 46.9995 44.5035 47.0471C44.4558 47.0947 44.4283 47.1588 44.4267 47.2262C44.4266 47.2598 44.4332 47.2931 44.446 47.3242C44.4589 47.3553 44.4777 47.3836 44.5015 47.4074C44.5253 47.4312 44.5536 47.45 44.5847 47.4629C44.6158 47.4757 44.6491 47.4823 44.6828 47.4822L45.9845 47.3264C46.0518 47.3248 46.1159 47.2974 46.1635 47.2498C46.2112 47.2023 46.2388 47.1382 46.2405 47.0709C46.2401 47.0033 46.2129 46.9386 46.1649 46.891C46.1169 46.8433 46.0521 46.8166 45.9845 46.8166Z" fill="black"/>
<path d="M112.939 37.6373C110.737 25.8576 98.0016 18.7819 85.2197 22.6251C77.2513 24.9956 70.6147 31.2301 68.8252 39.6568C68.6018 40.7069 68.6 41.7921 68.82 42.843C68.8351 42.8968 68.8673 42.9442 68.9117 42.978C68.9561 43.0119 69.0104 43.0304 69.0662 43.0307H81.3441C81.4 43.03 81.4541 43.0114 81.4985 42.9776C81.543 42.9438 81.5754 42.8966 81.5909 42.843C83.337 35.2581 91.3998 32.8169 97.1836 36.112C99.385 37.3865 100.77 39.9302 99.8427 42.3952C99.3067 43.6171 98.5085 44.706 97.5046 45.5849C94.8693 48.1141 91.5742 49.742 87.9668 55.0068C85.5117 58.6883 84.6468 62.4903 84.8814 65.3811C84.883 65.4485 84.9105 65.5127 84.9582 65.5603C85.0059 65.608 85.0701 65.6355 85.1375 65.6371H97.774C97.8417 65.6365 97.9065 65.6094 97.9543 65.5615C98.0022 65.5136 98.0294 65.4488 98.03 65.3811C98.0169 64.9502 98.046 64.5191 98.1169 64.0938C98.437 62.8391 99.0939 61.6957 100.016 60.7871C103.22 57.4416 109.263 53.6616 111.813 47.8222C113.193 44.6148 113.585 41.0687 112.939 37.6373ZM97.5196 65.1227H85.3767C85.3015 61.8569 86.2135 58.6444 87.9935 55.9053C91.5047 50.4018 94.8681 48.7375 97.6459 46.1509C99.7894 44.1534 101.322 41.886 100.369 39.1383C99.0316 35.4093 94.5599 33.8573 90.6015 34.2374C86.0951 34.6689 82.3788 37.6489 81.1495 42.5163H69.2777C69.1088 41.5305 69.1401 40.5208 69.3698 39.5473C71.0382 32.0927 76.6517 26.3054 83.7187 23.6678C95.8506 19.0948 108.521 24.8189 111.935 35.6926C112.728 38.1701 112.939 40.7973 112.551 43.3697C112.162 45.942 111.186 48.39 109.696 50.5229C104.547 57.6079 97.4791 59.8736 97.5196 65.1227Z" fill="black"/>
<path d="M103.887 94.4136V69.0294C103.886 68.9619 103.859 68.8974 103.811 68.8496C103.763 68.8019 103.699 68.7747 103.631 68.774H78.2477C78.1802 68.7749 78.1156 68.802 78.0678 68.8497C78.02 68.8974 77.9927 68.9619 77.9916 69.0294V94.4136C77.9927 94.4812 78.02 94.5458 78.0678 94.5936C78.1156 94.6413 78.1801 94.6687 78.2477 94.6697H103.631C103.699 94.6685 103.763 94.6411 103.811 94.5934C103.859 94.5456 103.886 94.4811 103.887 94.4136ZM103.374 94.1582C103.374 94.1582 78.7581 94.1478 78.5032 94.1535C78.5032 94.1535 78.5136 69.5433 78.5072 69.2855C78.5072 69.2855 103.118 69.2953 103.376 69.2895C103.376 88.0633 103.371 93.7133 103.374 94.1582Z" fill="black"/>
<path d="M3.1727 94.853C3.17583 94.9188 3.20414 94.9808 3.25176 95.0262C3.29938 95.0716 3.36266 95.0969 3.42846 95.0969C3.49426 95.0969 3.55754 95.0716 3.60516 95.0262C3.65279 94.9808 3.6811 94.9188 3.68423 94.853V74.3675C8.42472 79.1323 8.20632 78.9278 8.26425 78.9666C8.29982 78.9972 8.34319 79.0173 8.38953 79.0247C8.43587 79.0321 8.48335 79.0265 8.52668 79.0085C8.57 78.9905 8.60746 78.9607 8.63488 78.9227C8.6623 78.8846 8.67859 78.8396 8.68194 78.7928C8.69526 78.7285 8.66977 71.4408 8.66977 68.9022C8.66836 68.8524 8.65255 68.8039 8.62426 68.7628C8.59598 68.7217 8.55641 68.6896 8.51032 68.6705C8.46423 68.6513 8.41359 68.6459 8.36449 68.6548C8.31538 68.6638 8.26992 68.6867 8.23355 68.7209L3.24743 73.5663C3.21035 73.6086 3.07885 73.5031 3.09449 74.0604C3.13041 75.3343 2.89637 79.5083 3.1727 94.853ZM8.1594 69.5065C8.1594 71.8787 8.1733 77.6446 8.1733 78.1556L3.79198 73.7528L8.1594 69.5065Z" fill="black"/>
<path d="M22.0333 57.8814C21.9992 57.8233 21.9435 57.7811 21.8783 57.764C21.8132 57.7468 21.7439 57.7561 21.6857 57.7899C17.4276 61.0697 13.2458 64.4474 9.1436 67.9203C8.89218 68.1329 9.25541 68.4932 9.50509 68.2818C13.5725 64.836 17.7194 61.4852 21.9423 58.2319C21.9996 58.1963 22.041 58.1401 22.0579 58.0749C22.0748 58.0096 22.066 57.9403 22.0333 57.8814Z" fill="black"/>
<path d="M16.7609 86.785C13.7989 83.5327 10.5965 80.2619 9.83528 79.5262C9.81155 79.5025 9.78337 79.4836 9.75236 79.4708C9.72134 79.4579 9.6881 79.4513 9.65454 79.4513C9.62097 79.4513 9.58773 79.4579 9.55672 79.4708C9.52571 79.4836 9.49753 79.5025 9.47379 79.5262C9.45006 79.5499 9.43123 79.5781 9.41838 79.6091C9.40554 79.6401 9.39893 79.6734 9.39893 79.7069C9.39893 79.7405 9.40554 79.7737 9.41838 79.8048C9.43123 79.8358 9.45006 79.8639 9.47379 79.8877C12.1757 82.6829 13.5185 83.9828 16.3994 87.1464C16.6213 87.3903 16.9822 87.0277 16.7609 86.785Z" fill="black"/>
<path d="M47.3821 37.9028C51.3794 34.5196 55.5562 31.1364 59.8205 27.8523C59.8771 27.8169 59.9181 27.7613 59.9352 27.6967C59.9523 27.6322 59.9442 27.5635 59.9126 27.5047C59.8784 27.4468 59.8227 27.4047 59.7576 27.3875C59.6925 27.3704 59.6233 27.3796 59.565 27.4132C55.3069 30.693 51.1251 34.0707 47.0229 37.5436C46.7692 37.7539 47.1324 38.1142 47.3821 37.9028Z" fill="black"/>
<path d="M42.1776 67.3959C42.1144 67.3807 42.0477 67.3902 41.9913 67.4225C41.9349 67.4549 41.8929 67.5075 41.8741 67.5697C41.7814 67.9046 41.6829 68.2371 41.5966 68.5731C41.5801 68.638 41.5897 68.7069 41.6234 68.7648C41.657 68.8227 41.7121 68.8651 41.7767 68.8829C41.8412 68.9008 41.9103 68.8926 41.9689 68.8601C42.0275 68.8276 42.071 68.7734 42.0901 68.7092C42.1882 68.3759 42.2805 68.0415 42.367 67.7059C42.3754 67.6731 42.3771 67.6389 42.372 67.6054C42.367 67.572 42.3553 67.5399 42.3376 67.511C42.32 67.4821 42.2967 67.457 42.2693 67.4373C42.2418 67.4175 42.2106 67.4035 42.1776 67.3959Z" fill="black"/>
<path d="M44.3747 68.6982C44.2449 68.9527 44.0572 69.1731 43.8267 69.3418C43.5619 69.5318 43.8168 69.9762 44.0845 69.7833C44.3899 69.5688 44.6407 69.2856 44.8167 68.9566C44.9697 68.6658 44.5282 68.4068 44.3747 68.6982Z" fill="black"/>
<path d="M41.148 84.6638L39.5955 85.1221C39.5331 85.1428 39.4812 85.1866 39.4502 85.2445C39.4193 85.3024 39.4118 85.37 39.4293 85.4333C39.4468 85.4965 39.4879 85.5507 39.5441 85.5845C39.6004 85.6184 39.6675 85.6293 39.7316 85.6151C40.253 85.476 40.7662 85.3098 41.2836 85.1574C41.3471 85.1378 41.4005 85.0942 41.4324 85.0359C41.4644 84.9776 41.4724 84.9091 41.4548 84.845C41.4372 84.7809 41.3953 84.7261 41.3381 84.6923C41.2808 84.6585 41.2127 84.6483 41.148 84.6638Z" fill="black"/>
</svg>
